<?xml version="1.0" encoding="UTF-8" standalone="no"?>
<!-- Generator: Adobe Illustrator 25.0.1, SVG Export Plug-In . SVG Version: 6.00 Build 0)  -->

<svg
   version="1.0"
   id="Layer_1"
   x="0px"
   y="0px"
   viewBox="0 0 150.82497 164.99542"
   xml:space="preserve"
   sodipodi:docname="University of Florence.svg"
   width="150.82498"
   height="164.99542"
   inkscape:version="1.4.3 (0d15f75042, 2025-12-25)"
   xmlns:inkscape="http://www.inkscape.org/namespaces/inkscape"
   xmlns:sodipodi="http://sodipodi.sourceforge.net/DTD/sodipodi-0.dtd"
   xmlns="http://www.w3.org/2000/svg"
   xmlns:svg="http://www.w3.org/2000/svg"><defs
   id="defs42" /><sodipodi:namedview
   id="namedview42"
   pagecolor="#ffffff"
   bordercolor="#000000"
   borderopacity="0.25"
   inkscape:showpageshadow="2"
   inkscape:pageopacity="0.0"
   inkscape:pagecheckerboard="0"
   inkscape:deskcolor="#d1d1d1"
   inkscape:zoom="2.3964921"
   inkscape:cx="91.17493"
   inkscape:cy="79.282547"
   inkscape:window-width="1266"
   inkscape:window-height="1373"
   inkscape:window-x="0"
   inkscape:window-y="0"
   inkscape:window-maximized="1"
   inkscape:current-layer="Layer_1"><inkscape:page
     x="0"
     y="0"
     width="150.82497"
     height="164.99542"
     id="page2"
     margin="0"
     bleed="0" /></sodipodi:namedview>
<style
   type="text/css"
   id="style1">
	.st0{fill:none;stroke:#000000;stroke-width:3.2;}
	.st1{fill:#FFFFFF;}
	.st2{fill:none;stroke:#000000;stroke-width:0.73;}
	.st3{fill:none;stroke:#FFFFFF;stroke-width:7.000000e-02;}
	.st4{fill:none;stroke:#000000;stroke-width:0.97;}
</style>










































<g
   id="g42"
   transform="matrix(2.0029877,0,0,2.0029877,-78.316821,-102.40344)"><path
     class="st1"
     d="m 69.9,53.3 c 1.1,-0.7 2.2,-1.1 3.5,-1.3 1.9,-0.4 3.9,-0.3 5.8,0.2 1.4,0.4 2.7,0.9 3.9,1.6 0.3,0.2 0.5,0.5 0.5,0.9 l -1.4,2.9 c 0,0 -0.7,1.1 -0.6,1.3 0.1,0.2 0.2,1.1 0.2,1.1 0.2,0.5 0.3,1 0.4,1.5 -0.3,1.7 -0.8,3.4 -1.4,5 -0.4,0.8 -0.4,1.7 -0.1,2.6 0.9,0.7 1.8,1.2 2.9,1.5 1,0.3 5.5,2.5 6.1,3.2 0.6,0.7 4.7,7.1 5,10 0.3,2.9 0.5,1.7 0.5,1.7 l 0.3,1.7 c 0,0 0.7,1.2 1,1.6 0.2,1.3 0.3,2.7 0.3,4 l 1.6,4 1.3,2.5 c 0.4,0.6 0.6,1.3 0.8,2.1 -0.3,0.7 -0.6,1.3 -1,1.9 0.1,0.7 0.2,1.4 0.2,2.1 -0.2,0.9 -0.6,1.7 -1.2,2.4 -0.4,0.4 -0.8,0.8 -1.1,1.2 0,0 0.1,1.6 0.1,2 -0.1,1.3 -0.5,2.6 -1.3,3.6 -0.2,0.2 -0.2,1.5 -0.2,1.5 -1.8,1.8 -3.8,3.3 -6,4.4 -3.1,1.6 -6.5,2.7 -10,3.1 -3.6,0.2 -9,0.1 -12.5,-1.4 -3.5,-1.5 -6.6,-2.9 -8.8,-5 -2.3,-2.1 -1,-1.1 -1,-1.1 l -0.4,-5.8 -0.4,-5.3 c -0.9,-0.5 -1.6,-1.2 -2.1,-2.1 -0.6,-1.3 -0.1,-2.6 0.4,-3.7 0.4,-1.2 0.6,-2.4 0.6,-3.7 -0.1,-1.9 -0.1,-3.7 0.1,-5.6 0.4,-2.4 0.8,-5.9 1.9,-8.3 1.1,-2.4 2.5,-5.1 3.5,-6 0.8,-0.7 1.7,-1.3 2.6,-1.9 0,0 -0.8,-0.9 -0.8,-1.5 0,-0.7 0.1,-1.4 0.4,-2.1 0.3,-0.4 0.5,-0.9 0.6,-1.3 0,0 1.4,0.7 1.8,0.8 0.4,0.2 0.8,0.5 1.2,0.8 0.4,0.4 0.6,0.7 0.8,0.7 0.2,0 1.8,-1.4 1.8,-1.4 l 1.7,-1 V 65.6 L 70.9,62 71.3,59.2 71,56.4 Z"
     id="path4" /><path
     class="st2"
     d="m 71.1,67 c -2.1,0.4 -4.2,1.1 -6.2,2.1"
     id="path5" /><path
     d="m 45.5,108 h -0.1 c -0.1,-0.3 -0.3,-0.7 -0.4,-1.1 0,-0.2 0,-0.4 0.2,-0.5 l 0.3,-0.1 c 0.1,0 0.1,0 0.1,-0.1 0,-0.1 -0.1,0 -0.2,0 -0.1,0 -0.5,0.2 -0.6,0.2 l -0.6,0.2 c 0,0 -0.1,0 -0.1,0 0,0 0,0 0,0 0,0 0.1,0 0.1,0 0.1,0 0.2,0.1 0.3,0.2 l 0.1,0.3 0.3,0.9 c 0,0 0,0.1 -0.1,0.1 l -2.3,0.8 c 0,0 -0.1,0 -0.2,0 l -0.4,-1.1 c -0.1,-0.2 -0.1,-0.4 0.1,-0.6 0.1,-0.1 0.2,-0.1 0.3,-0.2 0.1,0 0.1,-0.1 0.1,-0.1 0,-0.1 -0.1,0 -0.2,0 -0.1,0 -0.6,0.2 -0.7,0.2 -0.1,0 -0.4,0.1 -0.4,0.1 -0.1,0 -0.1,0 -0.1,0.1 0,0 0.1,0.1 0.1,0.1 0.1,0.1 0.1,0.2 0.2,0.3 0.1,0.2 0.6,1.6 0.7,1.9 0.1,0.3 0.2,0.7 0.4,1 0,0.1 0.1,0.2 0.2,0.1 0.1,-0.1 0,-0.1 0,-0.2 0,-0.1 -0.1,-0.2 -0.1,-0.3 0,-0.3 0.1,-0.4 0.4,-0.5 0.3,-0.1 0.5,-0.2 1.9,-0.7 l 1.6,-0.6 c 0.9,-0.3 1.5,-0.6 1.9,-0.7 0.4,-0.1 0.5,-0.1 0.6,0 0.1,0.1 0.1,0.2 0.1,0.2 0,0.1 0.1,0.1 0.1,0.1 0,0 0.1,-0.1 0,-0.2 -0.1,-0.3 -0.3,-0.7 -0.4,-0.9 -0.1,-0.2 -0.2,-0.6 -0.4,-1.1 0,-0.1 -0.1,-0.2 -0.2,-0.1 -0.1,0 -0.1,0.1 0,0.2 0.1,0.1 0.1,0.2 0.1,0.4 0,0.1 -0.1,0.3 -0.4,0.5 -0.3,0.2 -1,0.4 -1.9,0.8 z"
     id="path6" /><path
     d="m 43.1,103.8 c -1.4,0.3 -1.7,0.4 -2,0.4 -0.3,0 -0.5,0 -0.6,-0.2 0,-0.1 -0.1,-0.2 -0.1,-0.3 0,-0.1 0,-0.1 -0.1,-0.1 -0.1,0 -0.1,0.1 0,0.2 0.1,0.3 0.2,0.8 0.3,1 0.1,0.2 0.1,0.7 0.2,1 0,0.1 0,0.2 0.1,0.1 0.1,-0.1 0.1,-0.1 0,-0.1 0,-0.1 0,-0.2 0,-0.3 0,-0.3 0.1,-0.3 0.5,-0.4 0.4,-0.1 0.6,-0.2 2,-0.5 l 1.7,-0.4 c 0.9,-0.2 1.6,-0.4 2,-0.4 0.4,0 0.5,0 0.6,0.1 0,0.1 0.1,0.2 0.1,0.3 0,0.1 0.1,0.1 0.1,0.1 0,0 0.1,-0.1 0.1,-0.2 -0.1,-0.3 -0.2,-0.8 -0.2,-0.9 -0.1,-0.6 -0.2,-1.1 -0.4,-2.2 -0.1,-0.4 -0.2,-0.4 -0.4,-0.4 -0.4,0 -0.7,0.1 -1.1,0.1 -0.1,0 -0.2,0 -0.1,0.1 0,0.1 0.1,0.1 0.2,0 0.2,0 0.4,0 0.6,0.1 0.3,0.1 0.4,0.4 0.5,0.8 0.1,0.6 0.1,0.8 0,1 -0.6,0.3 -1.3,0.5 -2,0.6 z"
     id="path7" /><path
     d="m 46.7,97.1 c -0.1,-1.9 -1.9,-3.1 -4.1,-3 -2.2,0.1 -3.5,1.4 -3.4,3.3 0.1,2.3 2.3,3.1 4,3 1.6,0 3.6,-1.1 3.5,-3.3 z m -0.5,-0.3 c 0.1,1.5 -1.5,2.4 -3.5,2.6 -2.4,0.1 -3.1,-0.8 -3.1,-1.7 -0.1,-1.3 1.2,-2.3 3.4,-2.4 2.7,-0.2 3.1,1 3.2,1.5 z"
     id="path8" /><path
     d="m 43.8,92.3 c 0.9,0.1 1.6,0.2 2,0.3 0.4,0.1 0.5,0.1 0.5,0.3 0,0.1 0,0.2 0,0.3 0,0.1 0,0.1 0.1,0.1 0.1,0 0.1,0 0.1,-0.1 0,-0.3 0.1,-0.8 0.1,-0.9 0,-0.1 0.1,-0.6 0.2,-1.1 0,-0.1 0,-0.2 -0.1,-0.2 -0.1,0 -0.1,0 -0.1,0.1 0,0.1 -0.1,0.2 -0.1,0.4 0,0.1 -0.3,0.2 -0.6,0.2 -0.3,0 -1.2,-0.1 -2,-0.3 h -0.1 c -0.1,0 -0.1,0 -0.1,-0.1 l 0.1,-0.7 c 0,-0.1 0,-0.1 0.1,-0.1 0.2,-0.1 0.9,-0.3 1.4,-0.6 0.6,-0.2 1.1,-0.5 1.6,-0.9 0.2,-0.2 0.3,-0.5 0.3,-0.8 l 0.1,-0.7 c 0,-0.1 0,-0.1 -0.1,-0.2 -0.1,0 -0.1,0 -0.1,0.1 0,0.1 0,0.1 -0.1,0.2 0,0.1 -0.2,0.4 -0.8,0.8 -0.6,0.3 -1.6,0.8 -2.8,1.3 -0.4,-0.7 -1.2,-1.2 -2,-1.3 -0.5,-0.1 -1,0 -1.4,0.3 -0.4,0.4 -0.6,0.8 -0.6,1.3 0,0.2 -0.1,0.8 -0.1,1.1 0,0.3 -0.1,0.6 -0.2,1 0,0.1 0,0.2 0.1,0.2 0.1,0 0.1,0 0.1,-0.1 0,-0.1 0,-0.2 0.1,-0.3 0.1,-0.2 0.3,-0.3 0.6,-0.2 0.3,0.1 0.6,0.1 2,0.3 z m -3.6,-1.5 c -0.1,0 -0.1,0 -0.1,-0.1 0,-0.1 0,-0.3 0,-0.4 0.1,-0.4 0.6,-1.1 1.9,-0.9 0.5,0 1,0.3 1.4,0.7 0.1,0.2 0.1,0.4 0.1,0.6 0,0.2 -0.1,0.4 -0.2,0.6 0,0 -0.1,0.1 -0.2,0 z"
     id="path9" /><path
     d="m 45.1,85.5 c 0.8,0.3 1.6,0.5 1.9,0.7 0.4,0.2 0.4,0.2 0.4,0.4 0,0.1 0,0.2 -0.1,0.3 0,0.1 0,0.1 0,0.1 0,0 0.1,0 0.1,-0.1 0.1,-0.3 0.2,-0.8 0.3,-0.9 0.1,-0.4 0.4,-0.9 0.7,-2 0.1,-0.3 0.1,-0.3 -0.1,-0.5 -0.3,-0.2 -0.7,-0.3 -1,-0.4 -0.1,0 -0.2,0 -0.2,0 0,0 0,0.1 0.1,0.1 0.4,0.2 0.5,0.3 0.6,0.6 0,0.2 0,0.5 -0.1,0.7 -0.2,0.8 -0.4,0.8 -1,0.6 -0.3,-0.1 -1.1,-0.4 -1.4,-0.5 l -0.7,-0.2 c -0.1,0 -0.1,0 -0.1,-0.1 0,-0.1 0.3,-0.9 0.4,-1 0.1,-0.2 0.3,-0.3 0.5,-0.3 0.1,0 0.2,0 0.3,0.1 0.1,0 0.1,0 0.1,0 0,0 -0.1,-0.1 -0.1,-0.1 0,0 -0.4,-0.2 -0.6,-0.2 -0.5,-0.2 -0.6,-0.3 -0.6,-0.3 0,0 -0.1,0 -0.1,0 0,0 0,0.1 0.1,0.2 0.1,0.1 0,0.2 0,0.4 0,0.2 -0.3,1 -0.4,1.1 -0.1,0.1 -0.1,0 -0.1,0 l -2.2,-0.8 c -0.1,0 -0.1,0 -0.1,0 0,0 0.3,-0.9 0.4,-1 0.2,-0.3 0.3,-0.4 0.5,-0.4 0.1,0 0.2,0 0.3,0.1 0.1,0 0.1,0 0.2,0 0.1,0 0,-0.1 -0.1,-0.1 -0.1,0 -0.5,-0.2 -0.6,-0.2 -0.4,-0.2 -0.5,-0.2 -0.6,-0.3 0,0 -0.1,0 -0.1,0 0,0 0,0.1 0,0.1 v 0.3 c 0,0.1 -0.5,1.6 -0.6,1.8 -0.1,0.2 -0.2,0.6 -0.4,1 0,0.1 0,0.2 0,0.2 0,0 0.1,0 0.1,-0.1 l 0.1,-0.3 c 0.1,-0.2 0.3,-0.2 0.6,-0.1 0.3,0.1 0.6,0.2 1.9,0.7 z"
     id="path10" /><path
     d="m 44.6,79.4 v 0 c 0.2,0 1.7,-0.2 3,-0.5 1.3,-0.3 2.8,-0.5 3.6,-0.7 0.1,0 0.2,0 0.3,-0.1 0,-0.1 0,-0.1 -0.2,-0.2 l -5.3,-3 c -0.5,-0.2 -0.6,-0.4 -0.6,-0.6 0,-0.1 0,-0.1 0.1,-0.2 0.1,-0.1 0.1,-0.1 0,-0.2 0,0 -0.1,0 -0.2,0.1 -0.2,0.3 -0.3,0.6 -0.3,0.6 0,0 -0.3,0.5 -0.5,0.8 0,0.1 -0.1,0.2 0,0.2 0.1,0 0.1,0 0.1,-0.1 0.1,-0.1 0.1,-0.2 0.3,-0.3 0.2,-0.1 0.4,-0.1 0.9,0.2 l 3.9,2 v 0 c -0.2,0.1 -1.9,0.3 -2.7,0.5 -1.8,0.3 -3.7,0.6 -3.9,0.6 -0.2,0 -0.4,0 -0.4,0.1 0,0.1 0.1,0.2 0.2,0.2 l 5,2.8 c 0.7,0.4 1,0.6 0.9,0.8 0,0.1 -0.1,0.2 -0.1,0.3 0,0.1 0,0.1 0,0.2 0.1,0 0.1,0 0.2,-0.1 0.2,-0.3 0.3,-0.7 0.4,-0.8 0.1,-0.1 0.2,-0.4 0.5,-0.8 0,-0.1 0.1,-0.2 0,-0.2 -0.1,0 -0.1,0 -0.1,0.1 -0.1,0.1 -0.1,0.2 -0.2,0.3 -0.1,0.1 -0.4,0.1 -1.1,-0.3 z"
     id="path11" /><path
     d="m 51.4,73.5 c 0.7,0.6 1.3,1.1 1.5,1.3 0.3,0.3 0.3,0.4 0.3,0.5 0,0.1 -0.1,0.2 -0.2,0.2 -0.1,0.1 0,0.1 0,0.2 0.1,0 0.1,0 0.2,-0.1 0.2,-0.2 0.5,-0.6 0.6,-0.8 0.1,-0.2 0.5,-0.5 0.8,-0.9 0,-0.1 0.1,-0.1 0,-0.2 -0.1,-0.1 -0.1,0 -0.1,0 -0.1,0.1 -0.2,0.2 -0.3,0.3 -0.2,0.2 -0.4,0 -0.6,-0.1 -0.2,-0.1 -0.9,-0.7 -1.6,-1.3 l -3,-2.5 0.6,-0.7 c 0.5,-0.5 0.8,-0.5 1,-0.3 l 0.1,0.1 c 0.1,0.1 0.2,0.1 0.2,0.1 0,0 0,-0.1 -0.1,-0.2 C 50.7,69 50.1,68.5 50,68.4 49.8,68.3 49.8,68.3 49.8,68.3 49.7,68.5 49.6,68.8 49.4,69 l -1.9,2.3 c -0.2,0.2 -0.3,0.4 -0.5,0.6 -0.2,0.1 -0.3,0.1 -0.3,0.1 0,0.1 0,0.1 0.1,0.2 0.1,0.1 0.6,0.7 0.8,0.8 0.2,0.1 0.1,0.1 0.2,0 0.1,-0.1 0,-0.1 0,-0.1 -0.1,-0.1 -0.1,-0.2 -0.2,-0.3 -0.1,-0.2 0,-0.4 0.3,-0.8 l 0.7,-0.9 z"
     id="path12" /><path
     d="m 54.4,70.3 c 0.6,0.7 1.1,1.3 1.4,1.6 0.2,0.3 0.2,0.4 0.2,0.5 0,0.1 -0.1,0.1 -0.2,0.2 -0.1,0.1 -0.1,0.1 0,0.1 0.1,0 0.1,0 0.2,0 0.2,-0.2 0.6,-0.6 0.7,-0.6 0.1,0 0.5,-0.4 0.9,-0.8 0.1,-0.1 0.1,-0.1 0,-0.2 -0.1,-0.1 -0.1,0 -0.1,0 -0.1,0.1 -0.2,0.2 -0.3,0.2 -0.2,0.1 -0.4,0 -0.5,-0.1 -0.1,-0.1 -0.8,-0.8 -1.4,-1.5 L 54,68.4 c -1,-1.1 -1.2,-1.3 -1.4,-1.5 -0.2,-0.2 -0.3,-0.4 -0.2,-0.6 0,-0.1 0.1,-0.1 0.2,-0.2 0,0 0.1,-0.1 0,-0.2 -0.1,-0.1 -0.1,0 -0.2,0.1 -0.1,0.1 -0.5,0.5 -0.7,0.6 L 51,67.2 c -0.1,0.1 -0.1,0.2 -0.1,0.2 0,0 0.1,0 0.2,0 0,0 0,0 0,0 0.1,-0.1 0.2,-0.1 0.2,-0.2 0.2,-0.1 0.3,0 0.6,0.2 0.2,0.2 0.4,0.4 1.4,1.5 z"
     id="path13" /><path
     d="m 55.9,65.5 v 0 c 0.2,0.1 1.6,0.6 2.9,1 1.3,0.4 2.7,0.9 3.5,1.1 0.1,0 0.2,0 0.3,0 0.1,0 0,-0.1 -0.1,-0.3 L 59.3,62.2 C 59,61.8 59,61.6 59.1,61.4 c 0.1,-0.1 0.1,-0.1 0.2,-0.2 0.1,0 0.1,-0.1 0.1,-0.2 0,-0.1 -0.1,0 -0.2,0 -0.3,0.2 -0.5,0.4 -0.6,0.4 -0.1,0 -0.6,0.4 -1,0.6 -0.1,0.1 -0.2,0.1 -0.1,0.2 0.1,0.1 0.1,0.1 0.2,0 0.1,-0.1 0.2,-0.1 0.4,-0.2 0.2,0 0.4,0.1 0.7,0.6 l 2.4,3.6 v 0 l -2.6,-0.9 c -1.7,-0.6 -3.5,-1.2 -3.7,-1.3 -0.2,-0.1 -0.3,-0.1 -0.4,-0.1 -0.1,0 0,0.2 0.1,0.3 l 3.1,4.9 c 0.5,0.7 0.6,1 0.5,1.1 -0.1,0.1 -0.2,0.2 -0.3,0.2 -0.1,0 -0.1,0.1 -0.1,0.1 0,0.1 0.1,0 0.2,0 0.3,-0.2 0.6,-0.4 0.7,-0.5 0.1,-0.1 0.4,-0.2 0.8,-0.5 0.1,-0.1 0.1,-0.1 0.1,-0.2 0,-0.1 -0.1,0 -0.1,0 -0.1,0.1 -0.2,0.1 -0.4,0.2 -0.2,0 -0.4,-0.1 -0.8,-0.7 z"
     id="path14" /><path
     d="m 66.3,63.3 c 0,0 0,0 0,0 l 1.4,1.7 c 0.1,0.1 0.1,0.2 0,0.2 -0.1,0 -0.1,0.1 -0.1,0.1 0,0.1 0.1,0 0.2,0 0.6,-0.2 1.1,-0.4 1.4,-0.5 0.3,-0.1 0.3,-0.1 0.3,-0.2 0,-0.1 -0.1,0 -0.1,0 -0.1,0 -0.2,0.1 -0.3,0.1 -0.2,0 -0.4,0 -1,-0.8 -1,-1.2 -3.5,-4.5 -3.9,-4.9 -0.1,-0.2 -0.2,-0.2 -0.3,-0.2 -0.1,0 -0.1,0.2 -0.1,0.4 l 0.3,6.3 c 0,0.5 0,0.9 -0.3,1 -0.1,0 -0.1,0.1 -0.2,0.1 -0.1,0 -0.1,0 -0.1,0.1 0,0.1 0.1,0.1 0.2,0 0.4,-0.1 0.8,-0.3 0.8,-0.3 0.1,0 0.5,-0.2 0.8,-0.2 0.2,-0.1 0.1,-0.1 0.1,-0.1 0,-0.1 0,-0.1 -0.1,0 h -0.1 c -0.1,0.1 -0.3,0 -0.4,-0.1 0,0 0,0 0,0 0,0 0,0 0,-0.1 -0.1,-0.2 -0.1,-0.4 -0.1,-0.6 l -0.1,-1.4 c 0,-0.1 0,-0.1 0,-0.1 z m -1.7,0.1 -0.2,-2.5 v -0.1 c 0,0 0.1,0 0.1,0.1 l 1.5,2 V 63 Z"
     id="path15" /><path
     d="m 84.8,65.3 c 0.4,0.1 0.9,0.1 1.3,0 0.6,-0.3 1,-0.8 1.2,-1.4 0.3,-0.9 0.1,-1.9 -0.5,-2.7 l -0.2,-0.3 c -0.4,-0.8 -0.5,-1.1 -0.4,-1.6 0.1,-0.5 0.5,-0.8 1,-0.8 h 0.1 c 0.3,0.1 0.6,0.4 0.6,0.7 0.1,0.2 0.1,0.4 0,0.6 V 60 c 0,0 0.1,0 0.2,-0.2 0.2,-0.7 0.3,-1 0.3,-1.1 0,-0.1 0,-0.1 -0.1,-0.1 -0.3,-0.2 -0.6,-0.4 -0.9,-0.4 -0.9,-0.3 -1.9,0.2 -2.1,1.1 0,0 0,0 0,0 0,0 0,0.1 0,0.1 -0.2,0.9 -0.1,1.8 0.4,2.5 l 0.2,0.4 c 0.3,0.5 0.4,1.1 0.3,1.7 -0.1,0.5 -0.6,0.9 -1.2,0.8 0,0 -0.1,0 -0.1,0 v 0 c -0.5,-0.2 -0.9,-0.7 -0.8,-1.2 0,-0.2 0,-0.3 0.1,-0.5 0,-0.1 0,-0.2 0,-0.2 0,0 -0.1,0.1 -0.2,0.2 0,0.1 -0.2,0.7 -0.4,1.2 -0.1,0.2 0,0.2 0.1,0.4 0.4,0.2 0.7,0.4 1.1,0.6 z"
     id="path16" /><path
     d="m 90.2,64.2 c -0.4,0.8 -0.7,1.5 -0.9,1.8 -0.2,0.3 -0.3,0.4 -0.4,0.4 -0.1,0 -0.2,0 -0.3,-0.1 0,0 -0.1,0 -0.1,0 0,0 0,0.1 0.1,0.2 l 0.9,0.4 1.1,0.5 c 0.1,0 0.2,0 0.2,0 0,0 0,-0.1 -0.1,-0.1 -0.1,-0.1 -0.2,-0.1 -0.3,-0.2 -0.2,-0.1 -0.1,-0.3 0,-0.6 0.1,-0.3 0.5,-1.1 0.8,-1.9 l 1.7,-3.6 0.9,0.4 c 0.6,0.3 0.7,0.6 0.6,0.9 v 0.1 c -0.1,0.1 -0.1,0.2 0,0.2 0.1,0 0.1,0 0.1,-0.1 0,-0.1 0.4,-0.8 0.5,-1 0.1,-0.2 0.1,-0.2 0,-0.2 -0.2,0 -0.5,-0.1 -0.7,-0.2 l -2.8,-1.3 c -0.2,-0.1 -0.4,-0.2 -0.7,-0.4 -0.2,-0.1 -0.2,-0.2 -0.2,-0.2 0,0 -0.1,0 -0.2,0.1 -0.1,0.1 -0.6,0.8 -0.7,0.9 -0.1,0.1 0,0.2 0,0.2 0,0 0.1,0 0.1,-0.1 0.1,-0.1 0.2,-0.2 0.3,-0.2 0.2,-0.1 0.4,-0.1 0.8,0.1 l 1.1,0.4 z"
     id="path17" /><path
     d="m 94.7,66.1 c -0.6,0.7 -1,1.5 -1,2.4 0.1,0.6 0.4,1.2 1,1.6 0.5,0.4 1.1,0.5 1.7,0.4 1,-0.3 1.8,-1 2.3,-1.9 l 0.6,-0.8 c 0.9,-1.2 1.1,-1.4 1.2,-1.6 0.2,-0.2 0.4,-0.3 0.6,-0.3 0.1,0 0.1,0.1 0.2,0.1 0.1,0 0.1,0.1 0.2,0 0.1,-0.1 0,-0.1 -0.1,-0.2 -0.2,-0.2 -0.6,-0.4 -0.7,-0.5 -0.1,-0.1 -0.4,-0.3 -0.7,-0.6 -0.1,-0.1 -0.1,-0.1 -0.2,0 -0.1,0.1 0,0.1 0,0.2 0.1,0.1 0.1,0.1 0.2,0.2 0.2,0.2 0.1,0.4 -0.1,0.7 -0.2,0.3 -0.3,0.5 -1.2,1.6 l -0.8,0.9 c -0.6,0.8 -1.1,1.5 -1.8,1.6 -0.4,0.1 -0.8,0 -1.2,-0.2 -0.3,-0.2 -0.5,-0.5 -0.5,-0.9 -0.1,-0.5 0.1,-1.1 1,-2.3 l 0.8,-1.1 c 0.9,-1.2 1.1,-1.4 1.2,-1.6 0.2,-0.2 0.4,-0.3 0.6,-0.3 0.1,0 0.1,0.1 0.2,0.1 0.1,0.1 0.1,0.1 0.2,0 0.1,-0.1 0,-0.1 -0.1,-0.2 -0.1,-0.1 -0.6,-0.4 -0.8,-0.6 -0.1,-0.1 -0.6,-0.4 -0.9,-0.7 -0.1,-0.1 -0.1,-0.1 -0.2,0 -0.1,0.1 0,0.1 0,0.2 0.1,0.1 0.2,0.1 0.2,0.2 0.2,0.2 0.1,0.4 -0.1,0.7 -0.2,0.3 -0.3,0.5 -1.2,1.6 z"
     id="path18" /><path
     d="m 100,70.9 c -0.5,0.5 -1,0.9 -1.6,1.3 -0.2,0.2 -0.4,0.3 -0.5,0.2 -0.1,-0.1 -0.1,-0.1 -0.2,-0.2 -0.1,-0.1 -0.1,-0.1 -0.1,0 0,0.1 0,0.1 0,0.2 0.2,0.2 0.5,0.6 0.7,0.7 0.2,0.3 0.6,0.9 1,1.3 0.6,0.8 1.5,1.2 2.5,1.2 1,-0.1 1.9,-0.5 2.6,-1.2 0.7,-0.6 1.2,-1.3 1.3,-2.2 0.1,-1.1 -0.3,-2.2 -1.2,-3 -0.3,-0.3 -0.6,-0.7 -0.8,-0.9 -0.2,-0.2 -0.4,-0.6 -0.7,-0.9 -0.1,-0.1 -0.1,-0.1 -0.2,-0.1 -0.1,0 0,0.1 0,0.2 0.1,0.1 0.1,0.2 0.2,0.2 0.1,0.2 0,0.4 -0.2,0.6 -0.2,0.2 -0.4,0.4 -1.5,1.3 z m 2,-0.5 1.5,-1.2 c 0.1,-0.1 0.1,-0.1 0.2,-0.1 0.1,0.1 0.3,0.2 0.4,0.3 0.6,0.6 0.8,1.5 0.7,2.3 -0.2,0.8 -0.7,1.6 -1.3,2.1 -0.6,0.6 -1.4,1 -2.2,1.1 -0.7,0 -1.3,-0.4 -1.7,-0.9 -0.4,-0.5 -0.4,-0.8 -0.4,-1 0.1,-0.2 0.3,-0.4 0.5,-0.6 0.1,-0.1 0.7,-0.6 1.5,-1.3 z"
     id="path19" /><path
     d="m 104.3,76.4 c -0.8,0.5 -1.4,0.9 -1.8,1.1 -0.4,0.2 -0.4,0.2 -0.5,0.1 -0.1,-0.1 -0.1,-0.1 -0.2,-0.2 0,-0.1 -0.1,-0.1 -0.1,-0.1 0,0.1 0,0.1 0,0.2 0.2,0.3 0.4,0.6 0.5,0.8 0.2,0.4 0.4,0.7 0.6,1 0,0.1 0.1,0.1 0.2,0.1 0.1,0 0,-0.1 0,-0.2 -0.1,-0.1 -0.1,-0.2 -0.2,-0.3 -0.1,-0.2 0,-0.3 0.2,-0.5 0.2,-0.2 1,-0.7 1.8,-1.1 l 1.5,-0.9 c 1.2,-0.8 1.5,-0.9 1.8,-1.1 0.3,-0.2 0.5,-0.2 0.6,0 0.1,0.1 0.1,0.1 0.2,0.2 0,0.1 0.1,0.1 0.2,0.1 0.1,0 0,-0.1 0,-0.2 l -0.5,-0.8 c -0.1,-0.1 -0.3,-0.6 -0.5,-0.9 -0.2,-0.3 -0.1,-0.1 -0.2,-0.1 -0.1,0 -0.1,0.1 0,0.2 0.1,0.1 0.1,0.2 0.1,0.3 0,0.2 0,0.3 -0.3,0.5 -0.3,0.2 -0.5,0.3 -1.7,1.1 z"
     id="path20" /><path
     d="m 104.4,82.6 c 0.8,1.8 2.8,2.3 4.9,1.4 2.1,-0.9 2.9,-2.5 2.1,-4.3 -0.9,-2.1 -3.2,-2.1 -4.7,-1.5 -1.5,0.6 -3.1,2.3 -2.3,4.4 z m 0.6,0.1 c -0.6,-1.4 0.6,-2.8 2.4,-3.6 2.2,-0.9 3.2,-0.2 3.5,0.6 0.5,1.2 -0.4,2.6 -2.3,3.4 -2.6,1.2 -3.4,0.1 -3.6,-0.4 z"
     id="path21" /><path
     d="m 108.7,86 c -0.9,0.2 -1.6,0.3 -2,0.3 -0.4,0 -0.5,0 -0.6,-0.1 0,-0.1 -0.1,-0.2 -0.1,-0.3 0,-0.1 -0.1,-0.1 -0.1,-0.1 0,0 -0.1,0.1 -0.1,0.2 0,0.3 0.2,0.8 0.2,0.9 0,0.1 0.1,0.6 0.2,1.1 0,0.1 0.1,0.2 0.1,0.1 0,-0.1 0.1,0 0.1,-0.1 0,-0.1 0,-0.3 0,-0.4 0,-0.2 0.2,-0.3 0.5,-0.4 0.3,-0.1 1.1,-0.3 2,-0.4 h 0.1 c 0.1,0 0.1,0 0.1,0 l 0.1,0.7 c 0,0 0,0.1 0,0.1 -0.1,0.1 -0.7,0.6 -1.2,1 -0.5,0.3 -0.9,0.8 -1.2,1.3 -0.1,0.3 -0.1,0.6 0,0.8 l 0.1,0.7 c 0,0.1 0,0.1 0.1,0.1 0.1,0 0.1,0 0,-0.1 v -0.2 c 0,-0.4 0.2,-0.7 0.5,-1 0.5,-0.6 1.2,-1.2 2.2,-2.1 0.7,0.5 1.5,0.7 2.3,0.6 0.5,-0.1 0.9,-0.4 1.2,-0.8 0.2,-0.5 0.3,-1 0.1,-1.5 0,-0.2 -0.2,-0.8 -0.2,-1.1 0,-0.3 -0.1,-0.6 -0.2,-1 0,-0.1 0,-0.2 -0.1,-0.2 -0.1,0 -0.1,0.1 -0.1,0.1 0,0.1 0,0.2 0,0.3 0,0.3 -0.2,0.4 -0.5,0.4 -0.3,0 -0.6,0.1 -2,0.4 z m 4,0.2 c 0.1,0 0.1,0 0.1,0 0.1,0.1 0.1,0.3 0.1,0.4 0.1,0.4 -0.2,1.2 -1.5,1.5 -0.5,0.1 -1,0.1 -1.5,-0.2 -0.2,-0.1 -0.2,-0.2 -0.3,-0.5 0,-0.2 0,-0.4 0,-0.6 0,-0.1 0.1,-0.1 0.2,-0.1 z"
     id="path22" /><path
     d="m 110.2,93 c -0.9,-0.1 -1.8,0.1 -2.6,0.7 -0.5,0.4 -0.7,1.1 -0.6,1.7 0,0.6 0.2,1.2 0.7,1.6 0.8,0.6 1.9,0.9 2.9,0.8 h 3.1 c 0.3,0 0.5,0.1 0.5,0.3 0,0.1 0,0.2 0,0.2 0,0.1 0,0.1 0.1,0.1 0.1,0 0.1,-0.1 0.1,-0.2 v -1.8 c 0,-0.1 0,-0.2 -0.1,-0.2 -0.1,0 -0.1,0 -0.1,0.1 0,0.1 0,0.2 0,0.3 -0.1,0.3 -0.2,0.3 -0.6,0.3 -0.4,0 -0.6,0 -2,0 h -1.2 c -0.8,0.1 -1.7,-0.1 -2.4,-0.5 -0.3,-0.3 -0.5,-0.6 -0.5,-1.1 0,-0.4 0.1,-0.7 0.4,-1 0.4,-0.4 1,-0.6 2.4,-0.6 h 3.4 c 0.3,0 0.5,0.1 0.5,0.3 0,0.1 0,0.1 0,0.2 0,0.1 0,0.1 0.1,0.1 0.1,0 0.1,-0.1 0.1,-0.2 v -0.9 c 0,-0.2 0,-0.7 0,-1.1 0,-0.1 0,-0.2 -0.1,-0.2 -0.1,0 -0.1,0 -0.1,0.1 0,0.1 0,0.2 0,0.3 -0.1,0.3 -0.2,0.3 -0.6,0.3 -0.4,0 -0.6,0 -2,0 h -1.4 z"
     id="path23" /><path
     d="m 107.8,99.6 c -0.3,-0.1 -0.6,-0.3 -0.6,-0.5 0,-0.1 0,-0.2 0,-0.2 0,-0.1 0,-0.1 0,-0.1 -0.1,0 -0.1,0 -0.1,0.1 0,0 0,0 0,0 -0.1,0.2 -0.1,0.6 -0.2,0.8 -0.1,0.2 -0.1,0.5 -0.2,0.8 0,0.1 0,0.2 0.1,0.2 0.1,0 0.1,0 0.1,-0.1 0,-0.1 0.1,-0.2 0.1,-0.3 0.1,-0.1 0.2,-0.2 0.3,-0.2 l 0.4,0.1 3.6,1.3 v 0 l -2.3,0.3 c -0.3,0 -1.9,0.3 -2.3,0.3 -0.3,0 -0.5,0.1 -0.5,0.1 0,0 0.1,0.1 0.5,0.4 l 3.9,2.7 v 0 l -4.2,-0.6 c -0.3,0 -0.4,-0.1 -0.4,-0.1 0,0 0,-0.1 -0.1,-0.1 -0.1,0 -0.1,0 -0.2,0.2 -0.1,0.2 -0.4,1.3 -0.4,1.5 0,0.2 0,0.2 0.1,0.2 0.1,0 0.1,0 0.1,-0.1 0,-0.2 0.1,-0.3 0.2,-0.4 0.2,-0.2 0.4,-0.2 1,-0.1 l 6,0.7 c 0.2,0 0.3,0 0.3,-0.1 0,-0.1 0,-0.1 -0.2,-0.2 l -4.8,-3.3 5.8,-0.8 c 0.3,0 0.3,-0.1 0.3,-0.1 0,0 -0.1,-0.1 -0.2,-0.2 z"
     id="path24" /><path
     d="m 103.7,115.7 c -0.6,-0.7 -1.4,-1.1 -2.3,-1.1 -0.6,0 -1.2,0.4 -1.6,0.9 -0.4,0.4 -0.6,1.1 -0.5,1.7 0.3,1 0.9,1.9 1.7,2.4 l 0.8,0.6 c 1.1,1 1.3,1.1 1.5,1.3 0.2,0.2 0.3,0.4 0.2,0.6 0,0.1 -0.1,0.1 -0.2,0.2 -0.1,0.1 -0.1,0.1 0,0.2 0.1,0.1 0.1,0 0.2,-0.1 0.2,-0.2 0.5,-0.6 0.6,-0.7 0.1,-0.1 0.3,-0.4 0.6,-0.7 0.1,-0.1 0.1,-0.1 0,-0.2 -0.1,-0.1 -0.1,0 -0.2,0 -0.1,0.1 -0.1,0.1 -0.2,0.2 -0.2,0.2 -0.4,0.1 -0.6,-0.1 -0.2,-0.2 -0.4,-0.4 -1.6,-1.3 l -0.9,-0.8 c -0.7,-0.4 -1.2,-1.1 -1.5,-1.9 -0.1,-0.4 0,-0.8 0.3,-1.2 0.2,-0.3 0.6,-0.5 0.9,-0.5 0.5,0 1.1,0.2 2.2,1.1 l 1,0.9 c 1.1,1 1.3,1.1 1.6,1.3 0.3,0.2 0.3,0.4 0.2,0.6 l -0.1,0.2 c -0.1,0.1 -0.1,0.1 0,0.2 0.1,0.1 0.1,0 0.2,-0.1 0.1,-0.1 0.5,-0.6 0.6,-0.7 0.1,-0.1 0.5,-0.5 0.8,-0.8 0.1,-0.1 0.1,-0.1 0,-0.2 -0.1,-0.1 -0.1,0 -0.2,0 -0.1,0.1 -0.1,0.1 -0.2,0.2 -0.2,0.2 -0.4,0.1 -0.6,-0.1 -0.2,-0.2 -0.4,-0.4 -1.6,-1.3 z"
     id="path25" /><path
     d="m 99.8,123.1 v 0 c -0.2,-0.1 -1.6,-0.5 -2.9,-0.8 -1.3,-0.3 -2.8,-0.7 -3.5,-0.9 -0.1,0 -0.3,-0.1 -0.3,0 0,0.1 0,0.1 0.1,0.3 l 3.6,4.9 c 0.3,0.4 0.4,0.6 0.3,0.8 0,0.1 -0.1,0.1 -0.2,0.2 -0.1,0.1 -0.1,0.1 -0.1,0.2 0,0.1 0.1,0 0.2,0 0.3,-0.2 0.5,-0.4 0.6,-0.5 0.1,-0.1 0.4,-0.3 0.8,-0.5 0.1,-0.1 0.2,-0.1 0.1,-0.2 0,-0.1 -0.1,-0.1 -0.2,0 -0.1,0.1 -0.2,0.2 -0.4,0.2 -0.2,0 -0.4,-0.1 -0.7,-0.5 l -2.7,-3.4 v 0 c 0.2,0 1.9,0.5 2.7,0.7 1.7,0.4 3.6,1 3.8,1 0.2,0 0.3,0.1 0.4,0.1 0.1,0 0,-0.2 -0.1,-0.3 l -3.4,-4.6 c -0.5,-0.6 -0.6,-0.9 -0.5,-1.1 0.1,-0.1 0.2,-0.2 0.2,-0.2 0.1,0 0.1,-0.1 0,-0.1 0,0 -0.1,0 -0.2,0 -0.3,0.2 -0.6,0.5 -0.6,0.5 -0.1,0 -0.4,0.2 -0.8,0.6 -0.1,0.1 -0.1,0.1 -0.1,0.2 0,0.1 0.1,0 0.2,0 0.1,-0.1 0.2,-0.2 0.4,-0.2 0.2,0 0.4,0.1 0.9,0.7 z"
     id="path26" /><path
     d="m 92.6,124.7 c -0.4,-0.8 -0.8,-1.5 -1,-1.9 -0.2,-0.4 -0.2,-0.4 0,-0.5 0.1,-0.1 0.1,-0.1 0.2,-0.2 0.1,0 0.1,-0.1 0.1,-0.1 0,-0.1 -0.1,0 -0.2,0 l -0.8,0.5 c -0.2,0.1 -0.6,0.3 -1.1,0.5 -0.1,0 -0.1,0.1 -0.1,0.1 0,0 0.1,0.1 0.2,0 l 0.4,-0.1 c 0.2,-0.1 0.4,0 0.5,0.3 0.1,0.3 0.6,1 1,1.9 l 0.8,1.5 c 0.7,1.3 0.8,1.5 0.9,1.8 0.1,0.3 0.2,0.5 0,0.6 -0.1,0.1 -0.1,0.1 -0.2,0.1 -0.1,0 -0.1,0.1 -0.1,0.1 0,0 0.1,0 0.2,0 0.3,-0.1 0.6,-0.4 0.8,-0.5 0.2,-0.1 0.7,-0.3 0.9,-0.4 0.2,-0.1 0.2,-0.1 0.1,-0.1 0,0 -0.1,-0.1 -0.2,0 -0.1,0 -0.2,0.1 -0.3,0.1 -0.2,0 -0.3,-0.1 -0.5,-0.4 -0.2,-0.3 -0.3,-0.5 -1,-1.8 z"
     id="path27" /><path
     d="m 86.9,125 c -0.3,-0.4 -0.4,-0.5 -0.5,-0.5 -0.1,0 -0.1,0.2 -0.1,0.8 0,0.6 0,1.6 0,3.1 0,1.3 0,1.8 0,2.8 0,0.6 0,0.9 -0.1,1 -0.1,0.1 -0.2,0.2 -0.3,0.2 0,0 -0.1,0 -0.1,0.1 0,0 0,0 0,0 0,0.1 0.1,0.1 0.2,0 l 0.6,-0.3 c 0.1,0 0.4,-0.1 0.8,-0.2 0.1,-0.1 0.2,-0.1 0.2,-0.2 0,-0.1 -0.1,-0.1 -0.2,0 -0.1,0 -0.2,0 -0.3,0 -0.1,0 -0.1,-0.1 -0.1,-0.1 0,-0.1 -0.1,-0.2 -0.1,-0.4 0,-0.6 -0.1,-3.9 -0.1,-5 v 0 l 2.7,3.7 c 0.2,0.2 0.3,0.4 0.4,0.6 0,0.1 0,0.1 0,0.2 -0.1,0.1 -0.2,0.1 -0.3,0.2 0,0 -0.1,0 -0.1,0.1 0,0 0,0 0,0 0,0.1 0.1,0.1 0.2,0 0.4,-0.1 0.7,-0.3 0.9,-0.3 0.2,0 0.7,-0.2 1.1,-0.3 0.1,0 0.2,-0.1 0.2,-0.1 0,-0.1 0,-0.1 -0.1,-0.1 -0.1,0 -0.2,0 -0.3,0.1 -0.3,0 -0.4,-0.1 -0.8,-0.5 z"
     id="path28" /><path
     d="m 82.6,128.4 c -0.1,-0.9 -0.2,-1.6 -0.2,-2 0,-0.4 0,-0.5 0.2,-0.6 0.1,0 0.2,-0.1 0.3,-0.1 0.1,0 0.1,0 0.1,-0.1 0,-0.1 -0.1,-0.1 -0.2,-0.1 -0.3,0 -0.8,0.1 -1,0.2 -0.5,0 -1,0.1 -2.1,0.2 -0.3,0 -0.3,0.1 -0.4,0.3 0,0.4 0,0.7 0,1.1 0,0.1 0,0.2 0.1,0.2 0.1,0 0.1,0 0.1,-0.2 0,-0.4 0.1,-0.6 0.2,-0.8 0.2,-0.1 0.5,-0.2 0.7,-0.2 0.8,-0.1 0.9,0 1,0.7 0,0.3 0.2,1.2 0.2,1.5 l 0.1,0.8 v 0.1 c -0.2,0 -0.9,0.1 -1.1,0.1 -0.2,0 -0.4,-0.1 -0.5,-0.3 0,-0.1 0,-0.2 -0.1,-0.3 0,-0.1 0,-0.1 -0.1,-0.1 -0.1,0 0,0.1 0,0.2 0,0.1 0,0.4 0.1,0.6 0.1,0.2 0,0.5 0,0.7 0,0 0,0.1 0.1,0.1 0.1,0 0.1,-0.1 0.1,-0.1 0.1,-0.1 0.2,-0.2 0.3,-0.2 0.2,-0.1 1,-0.2 1.2,-0.2 0.2,0 0.1,0 0.1,0.1 l 0.3,2.4 c 0,0.1 0,0.1 0,0.1 0,0 -1,0.1 -1.1,0.1 -0.4,0 -0.5,-0.1 -0.6,-0.3 0,-0.1 -0.1,-0.2 -0.1,-0.3 0,-0.1 0,-0.1 -0.1,-0.1 -0.1,0 0,0.1 0,0.1 0,0 0,0.5 0,0.6 0,0.1 0,0.4 0,0.6 0,0 0,0.1 0.1,0.1 0,0 0.1,0 0.1,-0.1 l 0.3,-0.1 1.9,-0.3 c 0.4,0 0.7,-0.1 1.1,-0.1 0.1,0 0.2,0 0.2,-0.1 0,-0.1 -0.1,-0.1 -0.2,-0.1 h -0.3 c -0.3,0 -0.3,-0.2 -0.4,-0.5 -0.1,-0.3 -0.1,-0.6 -0.3,-2 z"
     id="path29" /><path
     d="m 77.8,128.9 c 0,-0.9 0.1,-1.6 0.1,-2 0,-0.4 0.1,-0.5 0.2,-0.5 h 0.3 c 0.1,0 0.1,0 0.1,-0.1 0,-0.1 -0.1,-0.1 -0.2,-0.1 h -0.9 c -0.1,0 -0.7,-0.1 -1.1,-0.1 -0.1,0 -0.2,0 -0.2,0.1 0,0.1 0,0.1 0.1,0.1 h 0.4 c 0.2,0.1 0.3,0.3 0.3,0.6 0,0.3 0,1.2 -0.1,2.1 v 0.1 c 0,0.1 0,0.1 -0.1,0.1 H 76 c -0.1,0 -0.1,0 -0.1,-0.1 -0.1,-0.1 -0.4,-0.8 -0.7,-1.4 -0.2,-0.5 -0.6,-1 -1,-1.5 C 74,126 73.7,126 73.4,126 h -0.7 c -0.1,0 -0.2,0 -0.2,0.1 0,0.1 0,0.1 0.1,0.1 0.1,0 0.1,0 0.2,0 0.1,0 0.4,0.1 0.8,0.7 0.4,0.6 0.9,1.5 1.6,2.6 -0.7,0.5 -1.1,1.3 -1.1,2.1 0,0.5 0.1,1 0.5,1.3 0.4,0.3 0.9,0.5 1.4,0.5 h 1.1 c 0.3,0 0.7,0.1 1.1,0.1 0.1,0 0.2,0 0.2,-0.1 0,-0.1 0,-0.1 -0.1,-0.1 H 78 c -0.2,-0.1 -0.3,-0.2 -0.3,-0.6 0,-0.4 0,-0.6 0.1,-2 z m -1.1,3.8 c 0,0.1 0,0.1 -0.1,0.1 -0.1,0 -0.3,0 -0.4,0 -0.5,0 -1.2,-0.4 -1.1,-1.8 0,-0.5 0.2,-1 0.5,-1.4 0.2,-0.1 0.4,-0.2 0.5,-0.1 0.2,0 0.4,0 0.6,0.1 0.1,0 0.1,0.1 0.1,0.2 z"
     id="path30" /><path
     d="m 71,125.6 c -0.4,-0.1 -0.9,-0.1 -1.3,0.1 -0.6,0.3 -0.9,0.8 -1.1,1.5 -0.2,1 0.1,1.9 0.7,2.7 l 0.2,0.2 c 0.5,0.7 0.6,1.1 0.5,1.5 -0.1,0.5 -0.5,0.8 -1,0.8 h -0.1 c -0.3,-0.1 -0.6,-0.3 -0.7,-0.6 -0.1,-0.2 -0.1,-0.4 -0.1,-0.6 0,-0.1 0,-0.2 0,-0.2 0,0 -0.1,0.1 -0.1,0.3 -0.2,0.7 -0.3,1 -0.3,1.1 0,0.1 0,0.1 0.1,0.1 0.3,0.2 0.6,0.3 1,0.4 0.9,0.2 1.8,-0.3 2.1,-1.2 0,-0.1 0,-0.1 0,-0.2 0.2,-0.9 0,-1.8 -0.6,-2.5 L 70,128.6 c -0.4,-0.5 -0.5,-1.1 -0.4,-1.7 0.1,-0.5 0.6,-0.9 1.1,-0.9 0,0 0.1,0 0.1,0 v 0 c 0.5,0.1 0.9,0.6 0.8,1.2 0,0.2 0,0.3 0,0.5 0,0.1 0,0.2 0,0.2 0,0 0.1,-0.1 0.1,-0.2 0,-0.1 0.2,-0.7 0.3,-1.2 0,-0.2 0,-0.2 -0.1,-0.3 -0.1,-0.4 -0.4,-0.5 -0.9,-0.6 z"
     id="path31" /><path
     d="m 66.4,127.1 c 0.3,-0.9 0.6,-1.6 0.8,-1.9 0.2,-0.3 0.2,-0.4 0.4,-0.4 0.1,0 0.2,0 0.3,0 H 68 c 0,0 0,-0.1 -0.1,-0.1 -0.3,-0.1 -0.8,-0.2 -0.9,-0.3 L 65.9,124 c -0.1,0 -0.2,0 -0.2,0 0,0 0,0.1 0.1,0.1 0.1,0.1 0.2,0.1 0.4,0.2 0.2,0.1 0.2,0.3 0.1,0.6 -0.1,0.3 -0.4,1.1 -0.7,2 l -0.6,1.5 c -0.5,1.4 -0.6,1.6 -0.7,1.9 -0.1,0.3 -0.2,0.4 -0.5,0.4 -0.1,0 -0.2,0 -0.2,0 -0.1,0 -0.1,0 -0.2,0 -0.1,0 0,0.1 0.1,0.1 0.3,0.1 0.7,0.2 0.9,0.3 0.2,0.1 0.7,0.3 0.9,0.4 0.1,0 0.2,0.1 0.2,0 0,-0.1 0,-0.1 -0.1,-0.1 -0.1,0 -0.2,-0.1 -0.2,-0.1 -0.1,-0.1 -0.2,-0.3 -0.1,-0.6 0.1,-0.3 0.2,-0.6 0.7,-1.9 z"
     id="path32" /><path
     d="m 62.1,125.3 c 0.4,-0.8 0.8,-1.5 1,-1.8 0.2,-0.3 0.3,-0.4 0.4,-0.4 0.1,0 0.2,0 0.3,0.1 0.1,0 0.1,0 0.2,0 0.1,0 0,-0.1 -0.1,-0.2 -0.3,-0.1 -0.7,-0.3 -0.9,-0.4 -0.2,-0.1 -0.6,-0.4 -1.1,-0.6 -0.1,0 -0.1,0 -0.2,0 -0.1,0 0,0.1 0.1,0.1 l 0.3,0.2 c 0.2,0.1 0.1,0.4 0,0.6 -0.1,0.2 -0.5,1.1 -0.9,1.9 l -1.8,3.5 -0.9,-0.5 c -0.6,-0.3 -0.6,-0.6 -0.6,-0.9 v -0.1 c 0.1,-0.1 0.1,-0.2 0,-0.2 -0.1,0 -0.1,0 -0.1,0.1 0,0.1 -0.4,0.8 -0.5,1 -0.1,0.2 -0.1,0.2 0,0.2 0.2,0.1 0.5,0.1 0.7,0.3 l 2.7,1.4 c 0.2,0.1 0.4,0.2 0.6,0.4 0.2,0.1 0.2,0.2 0.2,0.3 0,0.1 0.1,0 0.2,-0.1 0.1,-0.1 0.6,-0.8 0.6,-0.9 0.1,-0.1 0.1,-0.1 0,-0.2 -0.1,0 -0.1,0 -0.1,0.1 -0.1,0.1 -0.2,0.2 -0.3,0.2 -0.2,0.1 -0.4,0.1 -0.8,-0.1 l -1,-0.5 z"
     id="path33" /><path
     d="m 56.5,121.3 c 0,0 0,0 0,0 l 0.8,-2.1 c 0,-0.1 0.1,-0.1 0.2,-0.1 0,0 0,0 0,0 0.1,0 0.1,0 0.1,0 0,0 0,-0.1 -0.1,-0.2 -0.5,-0.4 -0.9,-0.8 -1.1,-0.9 -0.2,-0.2 -0.3,-0.2 -0.3,-0.2 0,0 0,0.1 0,0.1 0.1,0.1 0.2,0.1 0.2,0.2 0.1,0.1 0.2,0.4 -0.1,1.2 -0.5,1.4 -2,5.3 -2.2,5.8 -0.1,0.2 -0.1,0.3 0,0.4 0.1,0 0.2,0 0.4,-0.2 l 5.3,-3.5 c 0.4,-0.3 0.7,-0.4 1,-0.3 l 0.2,0.1 c 0,0 0.1,0 0.1,0 0,-0.1 0,-0.1 0,-0.2 l -0.7,-0.6 c -0.2,-0.1 -0.4,-0.4 -0.6,-0.5 -0.2,-0.1 -0.1,-0.1 -0.2,0 0,0.1 0,0.1 0,0.1 l 0.1,0.1 c 0.1,0.1 0.2,0.2 0.1,0.3 0,0 0,0 0,0 0,0 0,0.1 0,0.1 -0.1,0.2 -0.3,0.3 -0.5,0.4 l -1.2,0.8 c -0.1,0 -0.1,0 -0.1,0 z m 0.9,1.3 v 0 l -2,1.5 c 0,0 -0.1,0.1 -0.1,0 0,-0.1 0,-0.1 0,-0.1 l 0.9,-2.3 c 0,0 0,0 0.1,0 z"
     id="path34" /><path
     d="m 55,116.5 c -0.3,-0.3 -0.7,-0.6 -1.1,-0.7 -0.6,-0.1 -1.3,0.1 -1.7,0.6 -0.7,0.7 -1.1,1.6 -1,2.6 v 0.3 c 0,0.9 -0.2,1.2 -0.5,1.5 -0.3,0.4 -0.9,0.4 -1.3,0.1 0,0 0,0 0,0 0,0 -0.1,-0.1 -0.1,-0.1 -0.2,-0.2 -0.3,-0.6 -0.2,-0.9 0.1,-0.2 0.2,-0.4 0.3,-0.6 0.1,-0.1 0.1,-0.1 0.1,-0.2 0,0 -0.1,0 -0.3,0.1 -0.6,0.5 -0.8,0.7 -0.9,0.8 -0.1,0.1 0,0.1 0,0.2 0.1,0.3 0.3,0.6 0.6,0.9 0.6,0.7 1.7,0.8 2.4,0.2 0,0 0,0 0,0 0,0 0.1,-0.1 0.1,-0.1 0.7,-0.6 1,-1.5 0.9,-2.4 v -0.5 c 0,-0.6 0.2,-1.2 0.6,-1.6 0.4,-0.4 1.1,-0.4 1.5,0 v 0 c 0.4,0.4 0.4,1.1 0,1.5 -0.1,0.1 -0.2,0.3 -0.3,0.4 -0.1,0 -0.1,0.1 -0.1,0.2 0.1,0 0.1,0 0.2,-0.1 0.1,-0.1 0.6,-0.5 1,-0.8 0.2,-0.1 0.2,-0.2 0.1,-0.3 0.1,-0.4 -0.1,-0.8 -0.3,-1.1 z"
     id="path35" /><path
     class="st1"
     d="m 75.9,61 c 0,0.1 -0.1,0.2 -0.1,0.2 h 0.9 c 0.1,0 0,-0.1 0,-0.2 -0.3,0 -0.5,0 -0.8,0 z"
     id="path36" /><path
     class="st3"
     d="m 75.9,61 c 0,0.1 -0.1,0.2 -0.1,0.2 h 0.9 c 0.1,0 0,-0.1 0,-0.2 -0.3,0 -0.5,0 -0.8,0 z"
     id="path37" /><path
     class="st2"
     d="m 63.3,69.8 c -13.9,7.6 -18.9,25.1 -11.2,38.9 5,9 14.4,14.7 24.7,14.8 15.8,-0.2 28.5,-13.2 28.3,-29 -0.2,-14.1 -10.5,-25.9 -24.4,-28"
     id="path38" /><path
     class="st4"
     d="M 84.5,53"
     id="path39" /><path
     d="M 100.8,99.7 C 99.5,98 98.5,96.1 98,94 c -0.5,-1.3 -0.7,-2.6 -0.8,-4 0,-0.8 -0.2,-1.7 -0.6,-2.4 -0.6,-0.8 -1,-1.8 -1,-2.8 0,-0.6 -0.1,-1.2 -0.3,-1.8 -1,-3.6 -3,-6.7 -5,-9.8 -0.1,-0.2 -0.3,-0.4 -0.5,-0.5 -2,-1 -4.1,-1.9 -6.1,-2.9 -0.5,-0.2 -1.1,-0.4 -1.6,-0.7 -0.7,-0.2 -1.2,-1 -1,-1.7 0.4,-1.4 0.8,-2.9 1.2,-4.3 0.3,-1 0.7,-1.9 0.2,-2.9 -0.4,-0.8 -0.4,-1.7 0,-2.5 0.4,-0.9 0.9,-1.7 1.3,-2.6 0.6,-1.2 0.4,-1.2 -0.6,-1.9 -0.7,-0.4 -1.4,-0.8 -2.1,-1.1 -6.4,-2.3 -10.2,0.1 -11.5,0.8 0.1,0.5 0.2,0.9 0.3,1.4 0.4,1.2 0.7,2.3 1,3.5 -0.7,4.3 -0.5,4.3 -0.1,7.8 0.1,0.9 0.1,2.6 0.1,2.6 l -3.4,2.2 c -0.3,-0.5 -0.8,-0.9 -1.3,-1.1 -0.3,-0.1 -0.6,-0.2 -0.9,-0.4 -0.6,-0.4 -0.8,-0.5 -1.6,-1 -0.2,2 -2.1,3.6 -0.7,5.5 -1.4,1 -2.5,2.2 -3.5,3.6 -0.8,1.2 -1.4,2.5 -1.9,3.9 -1.8,4.1 -2.6,8.6 -2.3,13.1 0.3,1.9 0.1,3.8 -0.7,5.5 -0.9,1.6 -0.5,3.6 1,4.7 0.5,0.4 0.8,1 1,1.7 0.4,3.1 0.6,6.2 1,9.3 0.1,0.8 -0.1,0.6 0.9,1.8 0,0 0.5,0.3 -0.1,-0.3 -0.6,-0.6 -0.4,-1.7 -0.4,-2.3 -0.2,-2.2 -0.4,-4.4 -0.6,-6.5 -0.1,-0.7 -0.2,-1.3 -0.2,-1.9 0.2,0.1 0.3,0.1 0.3,0.1 0.2,0.6 0.3,1.3 0.5,2 0.8,3.8 2,7.4 3.7,10.8 0.4,0.6 1,1 1.6,1.2 1.2,0.2 2.4,0.2 3.6,0.2 0.9,0 1.6,-0.6 1.8,-1.4 0.1,-1.1 0.3,-2.2 0.5,-3.2 0.2,0 0.6,2.3 0.7,2.4 -0.2,1.8 -0.4,2.7 -0.6,4.5 0.1,0 0.2,0.1 0.3,0.1 0.3,-0.7 0.4,-1.9 0.7,-2.6 0.3,0.3 0.4,0.6 0.3,1 v 1.9 c 0.2,-0.1 0.2,-1.3 0.3,-1.4 0.2,0.6 0.6,1.2 1,1.7 -1.4,-3.3 -1.8,-6.1 -2.8,-9.5 1.7,-0.2 3.2,-1 4.3,-2.3 0.7,-0.9 1.3,-1.8 1.9,-2.8 l 1.5,-2.1 c 0.5,0.8 0.9,1.6 1.4,2.4 -1.4,4.9 -2.5,9.7 -4.2,14.6 h 0.2 c 0.3,-0.4 1.1,-3 1.4,-3.5 0.2,0.4 -0.3,3.1 -0.8,3.5 H 76 c 0.1,-2.1 0.2,-3.8 0.3,-5.9 0.1,0 0.5,-1.5 0.6,-1.5 0,2.1 -0.3,5.3 -0.3,7.4 0.1,0 0.7,0 0.7,-0.1 0.1,-0.5 0,-1 0.1,-1.5 0.2,-2.6 -0.2,-5.4 0,-8.1 0.2,0 0.7,-2.2 0.8,-2.2 0,3.2 0.2,8.7 0.2,11.9 0.1,0 0.3,-0.1 0.4,-0.1 0.1,-0.2 0.1,-0.4 0.1,-0.6 0.1,-0.4 0.1,-0.9 0.2,-1.4 0.1,-1.1 0.1,-2.3 0,-3.4 0,-1.9 -0.4,-4.2 -0.5,-6.1 v -2 c 0.1,0 1.3,-1.2 1.3,1 0.2,4.2 0.3,8.2 0.5,12.4 0.2,0 0.3,0 0.5,0 0.1,-0.3 0.1,-0.6 0.1,-0.9 -0.1,-4 -0.1,-8 -0.2,-12.1 0,-0.9 0.2,-1.1 1.1,-0.9 0.7,0.1 1.5,0.2 2.4,0.3 v 12.9 h 0.4 V 112 H 85 c 1.1,3.1 1.3,6.4 1.6,9.7 l 0.5,-0.2 c 0,-0.9 0.6,-3.5 0.7,-4.3 v 1.4 l 0.3,2.4 0.3,0.1 c 0.1,-0.2 0.2,-0.5 0.2,-0.8 -0.1,-1.4 -0.4,-2.8 -0.5,-4.1 -0.1,-0.6 -0.1,-2.1 -0.1,-2.6 0.6,0.8 1,1.7 1.3,2.7 0.2,1.4 0.3,2.5 0.5,4.1 0.2,-0.4 0.4,-0.5 0.4,-0.8 0.1,-1.2 0.2,-2.4 0.3,-3.7 0.3,-4.2 0.6,-8.5 0.9,-12.7 0,-0.3 0,-0.5 0,-0.8 0,-0.9 -0.6,-1.7 -1.5,-1.8 -1.2,-0.2 -2.5,-0.2 -3.7,-0.3 0,0.1 0,-0.1 0.1,-0.2 1.4,-1.6 3.8,-1.7 5.4,-0.3 0.3,0.3 0.6,0.6 0.8,0.9 0.4,0.6 0.7,1.2 0.9,1.9 0.6,2.4 1.3,4.8 1.8,7.2 0.5,2.6 0.6,4.4 0.8,6.1 0.2,-0.1 0.3,-0.3 0.4,-0.4 0.4,-0.8 0.8,-1.6 1.2,-2.5 0.3,-0.9 0.5,-1.8 0.5,-2.7 -0.1,-0.7 0.1,-1.4 0.6,-2 0.3,-0.4 0.6,-0.9 0.9,-1.3 0.6,-0.8 0.9,-1.9 0.6,-2.9 -0.2,-0.5 -0.1,-1 0.3,-1.4 0.5,-0.8 1.1,-2 0.3,-3 z M 92,99 l 0.8,0.2 c 0.3,0.1 0.6,0.2 0.8,0.3 0.8,0.2 1.1,-0.2 1,-1 -0.1,-1 -1,-1.7 -2,-1.7 -0.7,0 -3.2,-0.1 -3.8,-0.1 1.3,-1.2 3.9,-2.1 9.4,1.9 -0.3,0 -1,-0.2 -1.4,-0.2 0.7,1 0.5,1.2 1.1,2.2 0.4,0.6 0.7,1.2 1,1.8 1,2.4 0.7,4 -1.2,6 -0.8,-1.3 -0.9,-3 -0.1,-4.3 0.2,-0.4 0.4,-0.9 0.4,-1.4 0.2,-1 -0.4,-1.9 -1.4,-2.1 0,0 0,0 0,0 -0.5,1.5 -0.5,3.2 -0.2,4.7 0.3,1.9 0.7,3.8 0.9,5.7 0.2,1.2 -0.3,2.5 -1.2,3.3 C 95.3,108.9 95.2,103.6 92,99 Z m 4.7,3.4 H 97 c 0.6,0.7 0,1.4 -0.3,2.1 z m -7.6,-7.2 c 0.1,0.1 0.2,0.2 0.3,0.3 v 0 c 0.2,-0.1 0.5,-0.2 0.7,-0.4 1,-1.4 2.5,-0.8 3.8,-0.8 0,0.1 0,0.2 0.1,0.3 l -4.5,0.9 v 0 c -0.4,0.3 -0.8,0.6 -1.4,1.1 0.4,-2 3.4,-4.5 4.9,-4.1 -0.7,0.4 -1.4,0.8 -2,1.3 -0.8,0.5 -1.3,0.9 -1.9,1.4 z m -2.4,3.6 c 1.2,-2.7 8.7,-1.8 6.9,0.1 -0.8,-0.4 -1.7,-0.7 -2.7,-0.8 -1.5,0.1 -2.9,0.3 -4.2,0.7 z m -1.5,1.8 c -0.3,0.6 -0.6,0.6 -1.2,0.5 -1.6,-0.4 -3.3,-0.1 -4.6,0.8 -0.3,0.2 -0.6,0.5 -0.8,0.7 0.8,1.1 1.9,0.1 2.9,0.8 -0.3,0.7 -0.5,1.4 -0.9,2 -0.2,0.3 -0.6,0.4 -1,0.3 -2.1,-0.9 -4.2,-1.9 -6.4,-3 l 7.9,-14.7 8.2,4 c -0.7,1.3 -1.2,2.6 -1.8,3.8 -0.8,1.6 -1.6,3.2 -2.3,4.8 z m 0.6,-16 c 0,-1.8 0,-2.1 0,-3.9 0.1,0 0.5,-1.2 0.6,-1.2 0.3,1.5 0.4,3.9 -0.4,8.9 -0.1,-0.1 -0.1,-3.8 -0.2,-3.8 z m -5.3,-8 v -3.2 c 1.1,0.8 1.3,7.2 0.4,9.6 -0.2,-1.1 -0.3,-2 -0.4,-2.9 -0.1,-0.9 -0.4,-1.7 -0.7,-2.6 -0.8,1.2 -1.2,2.5 -1.2,3.9 -0.4,2.5 -0.2,5 0.6,7.4 0,0.3 -2.1,3.9 -2.2,4.5 0,-0.6 -0.7,-0.4 -0.6,-1.2 0.2,-2.9 0.9,-7.4 1,-9.7 0,-1.6 0.3,-3.1 0.2,-4.8 0,-0.6 -0.1,-1.2 -0.3,-1.8 -0.1,-0.2 -0.4,-0.4 -0.6,-0.6 -0.2,0.3 -0.4,0.6 -0.5,0.8 -0.1,1.5 -0.2,2.9 -0.3,4.4 -0.1,2.3 -0.4,4.7 -0.8,7 -0.3,-2.6 0.4,-11.5 1.2,-14 h 3.2 c 0.2,1 0.4,1.9 0.6,2.9 z m -1,-9.5 c 0.9,1.2 -0.5,1.9 -0.6,3 L 78.7,70 c -0.5,0.3 -0.9,0.7 -1.3,1.2 -0.4,0.4 -0.7,0.8 -1.5,0.8 -0.6,0.1 -1.1,0.2 -1.6,0.4 -0.2,-1 -0.5,-1.9 -0.7,-2.9 l -0.2,-0.1 c -0.1,0.4 -0.2,0.8 -0.2,1.3 0,0.4 0,0.9 0,1.4 l -0.3,0.1 c -0.2,-0.5 -0.4,-1 -0.6,-1.5 -0.2,-0.5 -0.1,-0.9 -0.3,-1.2 -0.8,-1.2 0.1,-2.2 0.2,-3.3 l 0.5,-0.3 c 0.7,-0.2 1.4,-0.2 2.1,0 0.4,0.8 0.8,1.2 1.2,1.9 0.4,0.7 0.5,1.5 0.8,2.2 0.1,-0.1 0.2,-0.1 0.2,-0.2 -0.2,-1.5 -0.8,-2.9 -1.6,-4.2 -0.4,-0.4 -1,-0.5 -1.6,-0.4 -0.2,0 -0.4,0 -0.6,0 -0.2,0 -0.9,0.2 -1,0.4 -0.2,0.6 -0.5,1.2 -0.8,1.8 0,-0.4 0.1,-0.8 0.2,-1.1 0.3,-0.6 0.6,-1.6 1,-1.7 1.2,-0.3 2.7,-0.6 3.5,0.9 0.5,0.9 1.1,1.8 1.6,2.6 0.7,-1.6 1.4,-3.4 2.3,-5.4 0.4,1.4 0.4,2.8 -0.2,4.2 0,0 -0.1,0.1 -0.1,0.2 z m 2.3,-9.8 c -0.1,0.7 -0.3,1.1 -1.1,0.9 -3,-0.6 -6.1,-0.8 -9.2,-0.6 v 0 c 0,-0.1 0,-0.1 0,-0.2 0,-0.3 -0.2,-0.5 -0.2,-0.9 1.9,-0.7 8,-0.2 10.5,0.8 z M 81.1,56.2 80.8,56 c 0.3,-0.7 0.6,-1.3 0.8,-1.9 0.7,1 0.4,1.6 -0.5,2.1 z m -1,-2 h 0.3 c 0,0.6 0,1.2 -0.1,1.9 L 79.2,56 c 0.3,-0.7 0.6,-1.2 0.9,-1.8 z m -1.7,1.7 c -0.8,-1 -0.7,-1.5 0.3,-2.5 1,0.9 0.5,1.7 -0.3,2.5 z M 76.3,55.6 77,53.4 h 0.2 l 0.3,2.2 z m -1,0 c -0.9,-0.7 -0.8,-1.3 0.4,-2.7 0.7,0.7 0.7,1.8 0,2.4 -0.2,0.1 -0.3,0.2 -0.4,0.3 z m -2.2,0 c 0.1,-0.6 0.2,-1.3 0.3,-1.9 h 0.2 c 0.2,0.7 0.5,1.2 0.7,1.9 z m -1.2,-2.2 c 0.6,0.7 1.2,1.3 0.4,2.3 -0.9,-0.4 -1,-0.8 -0.4,-2.3 z m -0.7,7.9 c 0.3,0 1.1,-0.3 1.2,0 0.1,0.3 0,0.5 -0.2,0.5 h -0.8 c -0.1,-0.1 -0.3,-0.5 -0.2,-0.5 z m 0,3.7 c -0.1,-0.6 0,-1.3 -0.1,-1.9 L 71,62.4 c 2.5,-0.7 1.1,1.8 0.2,2.6 z m 0,-5 c 0.4,0 0.8,0.1 1.2,0.3 C 72.2,60.5 71,60.1 71.2,60 Z m 0,-0.4 c 0.1,-0.4 0.1,-0.9 0.3,-1.5 2.5,-0.1 5,0 7.4,0.4 0.2,0 0.6,0.5 0.7,0.9 0.3,2.7 -0.8,5.1 -2.1,7.3 l -3,-3.6 -0.2,0.1 c 0,0.2 0.1,0.4 0.2,0.6 L 72.9,64 c 0.1,-0.9 0.2,-1.8 0.2,-2.8 0,-1 -0.3,-1.3 -1.9,-1.6 z m 10.3,1 c -0.2,0.6 -0.6,1.4 -1.4,1.6 0,-0.6 0.2,-1.8 0.2,-3.5 0.5,0.1 0.8,0.2 1.4,0.3 0.1,0.6 0,1.2 -0.2,1.6 z m -7,19.2 c 0.1,-0.5 0.2,-1 0.2,-1.4 0.1,-0.4 0.1,-1 0.2,-1.5 0.1,-0.5 0.3,-1 0.5,-1.4 -0.2,4.5 -1,8.9 -0.2,13.4 l 0.3,0.1 c 0.2,-0.7 0.3,-1.4 0.5,-2.1 0.2,-2.4 0.4,-4.8 0.6,-7.2 0.1,-0.9 0.3,-1.8 0.5,-2.7 0.1,5.8 -0.4,11.7 -1.6,17.4 -0.6,-4.8 -1.7,-8.5 -2.3,-12.7 -0.4,-2 -0.8,-4.1 -1,-6.1 -1.4,0.9 -0.4,4.5 -0.8,5.5 -0.4,-0.8 -1.8,-2.7 -1.3,-4.7 0.3,-1.5 0.8,-2.9 1.4,-4.3 1.2,0.5 1.2,1.4 1.2,3 0,0.4 0.1,0.8 0.1,1.2 H 73 c 0.1,-0.7 0,-1.7 0.1,-2.5 0.6,0 1.4,-0.2 2,-0.2 -0.3,1.7 -1.5,4.1 -0.6,6.2 z M 63.9,99.5 c -3.5,-4.7 -3.5,-5.7 -1.5,-7.9 0.2,1.3 0.2,2.6 0.3,3.9 0.3,1.6 1.5,2.9 3,3.3 0.9,0.1 1.7,0.2 2.6,0.3 0.9,-0.2 1.9,-0.3 2.9,-0.4 1.3,-0.3 0.7,0.2 2,-0.1 -2.4,1.9 -5.3,2.8 -8.3,2.8 -0.3,0 -0.5,-0.2 -0.7,-0.4 -0.4,-0.5 -0.8,-1.1 -1.4,-1.8 z m 5.7,-10 c 0.3,-0.6 1.4,-0.3 1.7,0.7 0.7,2.2 1.9,6.8 1.5,7.9 -1.5,-2.6 -2.2,-5.8 -3.2,-8.6 z m 0.1,2 1.6,4.8 -3.4,0.4 c -1,-2.3 1.2,-3.4 1.8,-5.2 z m -6.6,2.9 c -0.1,-1.5 0.1,-3.1 0.6,-4.6 0.8,-2.6 1.9,-5.2 3,-7.9 l 0.8,2.2 c -1,0.5 -1.6,1.6 -1.5,2.7 0,1.6 -0.4,3.2 -1,4.7 -0.3,0.8 -0.5,1.6 -0.6,2.4 -0.3,1.7 1.3,3.6 3,3.4 1,-0.1 2.1,-0.2 3.1,-0.2 0.4,0 0.7,0 1.1,0.1 v 0.4 c -1.5,0.7 -3.2,0.9 -4.8,0.7 -2.6,-0.5 -3.6,-1.5 -3.7,-3.9 z m 6.1,-10.7 c 0.2,-0.1 0.8,0.2 1.1,0.4 -1.3,-0.2 -2,0.9 -3,1.2 l 0.1,0.3 2.2,-0.9 c 0.6,0.2 0.5,-0.1 0.9,0.7 -0.3,0.1 -1.1,0.2 -1.7,0.4 -0.6,0.2 -1,0.6 -1.3,0.7 v 0.3 c 0.4,0 0.8,-0.1 1.2,-0.3 0.9,-0.4 1.5,-0.4 1.9,0.2 0.2,0.2 0.2,0.9 0.4,1.3 -0.7,-1.1 -1.7,-0.9 -2.6,-0.5 -0.2,0.1 -0.3,0.3 -0.5,0.4 0.2,0.2 0.7,-0.1 0.9,-0.1 0.3,0 0.7,0 1,0 0.7,-0.1 1,0.9 1.3,1.1 -0.3,0.1 -0.9,-0.4 -1.6,-0.2 -0.5,0.4 -0.8,0.9 -0.8,1.5 0.6,1 0,1.7 -0.5,2.4 -0.9,1.1 -1.5,2.4 -1.7,3.8 -1.3,-0.4 -1.9,-2 -1,-4.3 0.4,-1 0.7,-2 0.9,-3 0,-0.3 -0.1,-0.6 -0.1,-1 0,-2.6 0.5,-3.5 2.9,-4.4 z m 0.4,-3.4 c 0,-0.5 0.1,-1.1 0.4,-1.6 0.5,1.9 0.5,1.3 1.7,3.4 0.2,0 0.4,-0.5 0.4,-0.9 C 72,79 72,79.3 71.9,77.1 c 1.2,6 1.9,12 2,18.1 l -0.3,0.1 c -0.2,-0.3 -0.4,-0.6 -0.6,-1 -0.4,-1.6 -0.8,-3.2 -1.1,-4.8 -0.2,-1.1 -0.3,-2.1 -0.5,-3.2 -0.2,-0.8 -0.3,-1.6 -0.5,-2.4 -0.1,-0.3 -0.2,-0.5 -0.4,-0.6 -1.4,-0.7 -1.1,-1.9 -0.9,-3 z m 3.8,16 C 74.2,96 75,95.2 75.5,95 c 0,0.1 0.5,-1 1,-1.2 0.5,-0.2 0.6,0 0.7,0 -0.3,0.2 -1.4,3.1 -2.3,4.5 -0.3,0.4 -0.7,1.3 -0.8,1.3 -0.1,0 -0.3,-0.5 -0.4,-0.4 -0.3,-0.1 0.1,-2.7 -0.3,-2.9 z M 74,88 c 0.1,1 1,5.7 1.1,6.8 -0.1,0 -0.7,0.5 -0.8,0.5 -0.1,-1 -0.1,-1.5 -0.2,-2.5 C 74.2,92.6 73.9,87.9 74,88 Z m 8.1,-12 c 1.8,1.9 1.4,9.8 0.9,12.3 -0.5,-0.3 -1.1,-0.6 -1.7,-0.8 -0.6,-0.1 -1,0.1 -1.7,1 -0.5,-3.2 -0.4,-6.4 0.2,-9.6 0.1,0 0.3,1.2 0.4,1.2 0.1,2.2 0.4,4.3 0.5,6.4 l 0.3,0.1 c 0.2,-0.5 0.4,-1 0.5,-1.5 0.2,-2.4 0.3,-6.7 0.6,-9.1 z m 7,25.3 c 1,0.5 1.6,1.5 1.5,2.7 -0.1,2.2 -0.3,4.5 -0.5,6.7 0,0.5 -0.1,1.1 -0.2,1.6 -0.9,-3.7 0.6,-7.4 -0.8,-11 z M 88,101.1 c 0.9,0.9 1.4,2.1 1.2,3.4 0,2.3 -0.1,4.6 -0.1,6.8 0,1.2 0.1,2.4 0.1,3.6 -0.3,-0.9 -0.5,-1.7 -0.7,-2.6 -0.1,-2.3 -0.1,-4.6 -0.1,-6.8 0,-0.8 0.2,-1.5 0.1,-2.3 -0.1,-0.7 -0.3,-1.5 -0.5,-2.1 z m -0.8,5.2 c 1,4 -0.1,9.8 -0.3,13.8 -0.2,-1.7 -0.4,-3.4 -0.7,-5 -0.2,-1.5 -0.6,-3 -1.2,-4.4 -0.3,-1.3 1.2,-3.7 2.2,-4.4 z m -9.6,0.3 0.8,0.6 c 2.3,-0.5 3.1,-2.2 3.6,-4.2 l -0.8,-0.1 c 0,-0.3 0,-0.6 0,-0.9 l -1.6,0.9 c 0.8,-1.7 2.6,-1.8 7.1,-0.3 l -0.4,-1 c 1,-0.2 1.4,0.1 1.5,1 0.2,1.2 -0.2,2.4 -1,3.2 -0.7,0.7 -1.3,1.5 -1.8,2.4 -0.1,0.3 -0.5,0.5 -0.8,0.3 0,0 0,0 0,0 h -0.1 c -0.4,-0.2 -1,0.2 -1.5,0.3 L 81,109 c 0,-0.1 0,-0.2 -0.1,-0.4 l 2.3,-0.5 v -0.2 c -0.6,0.1 -1.2,0.2 -1.8,0.3 -0.6,0.2 -1.2,0.3 -1.8,0.4 0.6,-0.7 1.5,-1.2 2.5,-1.2 0.7,-0.1 0.9,-0.4 0.5,-1.4 -0.1,1.1 -0.8,1.1 -1.4,1.1 -0.5,0.1 -0.9,0.3 -1.4,0.5 -0.6,0.2 -1.2,0.2 -1.8,0.4 -0.2,-0.4 -0.2,-0.8 -0.4,-1.4 z m -5.2,-3.2 c 0.1,-0.1 0.1,-0.2 0.1,-0.4 l 6.5,3.2 c -0.8,0.4 -4.3,-1 -6.6,-2.8 z m -2.7,9.4 c 0.7,-1.5 1.3,-2.9 2.1,-4.2 0.2,-0.3 1,-0.2 1.5,-0.3 0.1,0.5 0.4,1 0.2,1.4 -0.3,0.8 -0.7,1.6 -1.2,2.3 l -0.4,-0.2 1,-1.6 c -0.9,0 -1.5,0 -1.8,1 0,0.5 0.3,1.7 -1.4,1.6 z m -1.4,0.3 c 0.1,0.4 0.1,0.8 0.1,0.8 l -2.1,2.2 0.6,0.6 c 0.3,-0.6 0.6,-1.3 1,-1.9 l 0.3,0.3 c 0.3,1.9 -1.1,3.7 -3,3.9 0,0 0,0 0,0 -0.5,-0.1 -0.9,-0.5 -1.1,-1 -0.2,-1.1 -0.4,-2.3 -0.4,-3.4 0.1,-0.5 -0.2,-1 -0.6,-1.3 -0.5,-0.3 -0.8,-0.8 -1.1,-1.3 -0.5,-1 -0.8,-2 -1.2,-3 l 0.2,-0.2 c 0.4,0.3 0.8,0.7 1.2,1.1 0.4,0.5 0.7,1.1 1.1,1.7 1,1.5 1.9,1.7 3.3,0.6 1.6,-1.4 3.1,-2.8 4.4,-4.4 0.8,-0.9 2.1,-1.4 3.4,-1.2 0.4,0.1 0.8,0.3 1.2,0.6 -0.2,0.3 -0.4,0.7 -0.5,1 -0.4,-0.2 -0.9,-0.4 -1.3,-0.6 -1.2,-0.3 -2.4,0.3 -2.9,1.5 -0.4,1 -1.2,1.8 -2.1,2.2 -1,0.6 -1.7,1.4 -2.2,2.4 -0.7,1.6 -1.4,3.2 -1.9,4.8 1.4,0.6 2.8,-0.3 3,-2.3 l -2,2.3 c 0.1,-3 1.9,-6.1 4.1,-6.8 l -1,1.6 z m -2.9,-0.9 c -0.2,0.1 -0.8,-0.1 -1.1,-0.4 -0.6,-0.6 -1.1,-1.3 -1.6,-2 1.2,0.2 2,1.4 3.2,0.8 0.9,-0.5 1.8,-1 2.7,-1.4 l 0.2,0.3 c -1.1,0.8 -2.2,1.8 -3.4,2.7 z m -2.5,1.7 c 0.3,0.2 0.2,0.8 0.3,1.2 0.1,0.4 0,0.8 0,1.5 -2.3,-2.4 -3.3,-6.4 -4.3,-9.2 0.1,0 0.8,0.6 0.9,0.5 0.4,0.8 0.3,2.1 0.8,2.9 0.7,1.1 1.3,2.6 2.3,3.1 z m -4.8,-7 c 0.5,1.3 2.3,6.7 3,8 0.5,1 0.8,2.1 2,2.5 0.1,0 0.2,0.3 0.3,0.5 0.5,1.6 1.5,2.1 3,1.4 0.7,-0.4 1.3,-0.8 2,-1.2 -0.2,0.9 -0.9,1.6 -1.8,1.7 -3.4,0.4 -4.2,0 -5.4,-3.1 -0.7,-1.9 -2.1,-6.4 -2.7,-8.4 z m 6.2,-33.4 c 0.3,1.2 0.8,1.8 0.3,2.9 -0.9,2.3 -2.1,5 -2.8,7.3 -1.6,4.9 -3,9.8 -4.5,14.7 0,0.1 0,0.3 0,0.4 L 58,98.6 c 0.9,3.4 2.9,4.9 5.4,3.8 l -1.5,-1.9 -0.3,0.2 0.9,1.5 c -2,0.1 -3.8,-1.5 -3.9,-3.5 0,0 0,0 0,0 0,-0.2 0,-0.5 0,-0.7 0.1,-0.8 0.6,-1.1 0.9,-2 -0.4,0.1 -1.2,1.6 -1.7,1.8 1.1,-4.1 6,-13.7 8,-18.4 0.1,0.1 0.3,1.1 0.4,1.1 -0.1,0.4 -0.3,1.2 -0.4,1.5 -1.3,3.1 -2.5,7.2 -4.5,10.1 -0.9,1.3 -1,3 -0.1,4.3 0.3,0.5 0.5,1 0.5,1.5 l -0.6,-0.5 c -1.4,1.2 -1.5,2.9 -0.3,3.7 -0.1,-0.9 -0.2,-1.8 -0.2,-2.8 l 0.5,-0.2 c 0.4,0.5 0.8,1 1.2,1.6 1.3,2.2 2.3,2.7 4.8,2.1 1.6,-0.5 3.1,-1 4.7,-1.7 0.5,-0.2 1,-0.4 1.4,-0.6 l 0.2,0.3 c -0.8,0.5 -1.6,0.9 -2.4,1.2 -2.4,0.7 -4.8,1.3 -7.2,2 -0.4,0.1 -0.9,0.3 -1.4,0.4 -0.4,0.5 -0.4,0.5 1,0.3 2.1,-0.6 4.5,-1.2 6.6,-1.9 1.3,-0.6 2.6,-1.2 4,-1.6 l -0.9,1.9 c 0,0 -1.1,0.4 -2.3,0.8 -1.5,0.8 -2.9,1.8 -4.2,3 -0.6,0.6 -2.6,0.8 -3.2,0.1 -1.8,-2.1 -3.9,-3.8 -6.2,-5.2 -0.4,-0.2 -0.9,-0.4 -1.3,-0.6 0.6,4 4.2,6.4 10,6.7 -0.3,0.8 -0.6,1.3 -1.6,0.7 l -0.2,0.2 c 0.3,0.5 0.5,1 0.9,1.7 1.8,-2.9 3.7,-5.5 6.8,-6.7 l 0.9,1.7 c -1.9,0.9 -4.4,1.1 -6.1,3.3 0.4,-0.1 0.7,-0.1 0.8,-0.3 1.1,-1.3 2.7,-1.6 4.2,-2.1 0.3,-0.1 0.6,-0.2 0.8,-0.3 1.1,-0.7 2.1,-0.3 3.1,0.5 -0.8,0.1 -1.4,0.2 -2.1,0.3 -2.3,0.5 -4.4,1.6 -6.2,3.1 -1,1 -2.5,1.1 -3.6,0.3 -3.4,-1.7 -6.3,-4.2 -8.7,-7.1 -0.3,-0.4 -0.3,-0.9 -0.2,-1.3 1.3,-4.4 2.5,-8.8 4.8,-12.8 0.7,-1.3 0.9,-2.7 0.6,-4.1 -0.1,-0.5 -0.6,-0.9 -0.9,-1.3 -0.4,0.4 -0.9,0.7 -1,1.2 -0.2,0.9 -0.3,1.9 -0.2,2.8 0,2.7 -1.1,5 -1.9,7.8 -0.6,-7.6 2,-16.4 7,-20.3 0.3,-0.2 0.8,-0.5 1.2,-0.7 z M 59,83.3 c 0.8,1.8 0.3,3.3 -0.4,4.8 C 58.5,86.5 58,85 59,83.3 Z M 57.4,102 c 1.3,0 4,2.4 5.2,3.9 -1.9,0.2 -4.8,-2 -5.2,-3.9 z m 8.1,-22.9 c -0.5,1.1 -1.1,2.2 -1.6,3.3 -1.2,2.9 -2.4,5.8 -3.6,8.7 -0.2,0.5 -0.4,1 -0.6,1.4 L 59.4,92.4 65,76.7 c 0.7,0.7 0.9,1.6 0.5,2.4 z m -0.6,-7 c -0.2,0.5 -0.8,0.7 -1.3,0.6 -0.7,-0.2 -0.5,-1 -0.4,-1.5 0.1,-0.4 0.2,-0.4 0.3,-0.4 0.4,0.5 0.8,1 1.4,1.3 z m 0.2,-0.5 c -0.8,-0.6 -2.1,-1 -0.9,-2.3 1.8,0.2 1.4,1.1 0.9,2.3 z m 1.1,2 c 0.6,2 1.2,4 1.8,6.1 0.2,0.7 0.5,1.4 0.8,2.1 0.3,0.6 0.1,1.3 -0.4,1.8 -1.6,-3.3 -2.7,-6.8 -3.3,-10.5 0.7,-0.4 1,0 1.1,0.5 z m 1,-2 c -0.2,0.2 -0.5,0.4 -0.8,0.5 -0.3,0 -0.5,-0.1 -0.7,-0.3 0.1,-0.4 0.1,-0.8 0.2,-1.2 0.1,0 -0.1,-0.7 0,-0.7 0.4,0.4 1.7,0.9 1.3,1.7 z M 70,69.9 c -0.6,1.6 -1.7,5.2 -2.2,6.8 -0.1,0 -0.2,-1.4 -0.3,-1.4 l -0.8,-2.4 c 1.1,-0.6 1.6,-1.8 2.3,-2.7 0.1,0 0.8,-0.5 1,-0.3 z m 1.2,1.7 c -1.2,2.4 -1.9,5.1 -2,7.8 -0.1,0.3 -0.2,0.5 -0.3,0.7 -0.3,-1.2 -0.8,-2 -0.4,-3.1 0.6,-1.6 0.9,-3.4 1.4,-5 0.2,-0.9 0.6,-1.7 1,-2.7 0.6,0.6 0.7,1.6 0.3,2.3 z m -0.3,-10.5 0.1,-0.6 1.2,0.3 c -0.3,0 -0.5,0 -0.8,0 -0.2,0 -0.4,0.1 -0.5,0.3 z m -0.6,-7.7 1,0.3 c -0.1,0.1 -0.1,0.2 -0.1,0.3 -0.1,0.5 0,1.1 0.3,1.5 0.2,0.2 -0.4,0.2 -0.4,0.2 -0.4,-0.6 -0.7,-1.4 -0.8,-2.3 z m 13.2,0.7 -0.9,0.2 c -0.1,-0.2 -0.3,-0.4 -0.5,-0.6 -0.2,-0.2 -0.4,-0.4 -0.6,-0.5 0,0.3 -0.1,0.7 -0.3,0.9 -0.2,-0.3 -0.4,-0.7 -0.6,-1 -0.1,0.2 -0.6,0.8 -0.8,1 C 79,52.9 79,52.8 77.9,53.8 77.7,53.4 77.5,52.7 77.3,52.3 77,52.6 76.8,53.2 76.4,53.6 76.2,53.4 76,52.7 75.6,52.2 c -0.4,0.6 -0.8,1.2 -1.2,1.9 -0.2,-0.5 -0.6,-1 -0.8,-1.4 0,-0.1 -0.5,0.6 -0.8,1.3 -0.1,0.2 -1,-1.2 -1,-1.3 -0.1,0.3 -0.2,0.6 -0.3,0.9 L 70.8,53 c 0.4,-0.2 0.8,-0.4 1.1,-0.6 3.1,-0.9 6.4,-0.8 9.3,0.5 l 0.2,0.1 h 0.1 l 0.5,0.3 c 0,0 0.8,0.4 1.2,0.6 0.1,0 0.2,0.1 0.3,0.2 z m -1.6,2.2 c 0,0 0.8,-0.9 0.8,-1.6 l 0.9,-0.3 c -0.3,0.7 -0.7,1.4 -1.2,2.1 z m -1.2,6.5 c 1,0.2 1.1,-1.3 1.3,-1.8 0.6,0.7 -0.8,1.8 -0.9,2.8 -0.6,0.1 -0.4,-0.6 -0.4,-1 z m 1.8,8.7 c -1.6,0.3 -3.4,0.4 -5.2,0.7 1.2,-0.8 2.3,-1.8 3.2,-3 0.3,0.7 0.3,1.1 1.6,0.9 0.2,0 0.2,1.1 0.4,1.4 z m 1.3,1.1 c -2.4,0.5 -7.3,1 -7.8,0.1 2.2,-0.3 4.8,-0.5 7,-0.8 -0.1,-0.7 -0.1,-1.1 -0.1,-1.5 h 0.3 c 0,0.7 0.4,1.5 0.6,2.2 z M 95.4,87 C 94.5,85.8 93.7,84.5 93.1,83.1 93.3,83 94,83.2 94,83.4 l 1.3,2.4 c -0.1,0.1 0.2,1.2 0.1,1.2 z m 1.2,4.7 c 0,0.2 -0.1,0.3 -0.1,0.5 -1.7,-0.9 -2.9,-2.9 -5.2,-2.6 0.5,-0.3 1,-0.6 1.5,-0.8 0.5,-0.2 1.1,-0.5 1.8,-0.8 -0.8,-1.3 -2,-0.5 -2.9,-0.9 -0.4,-1.2 -0.6,-1.3 -1.9,-0.8 -1.2,0.5 -2.1,1.4 -2.6,2.6 -0.2,0.4 -0.3,0.8 -0.5,1.2 h -0.3 c 0,-0.4 0,-0.8 0,-1.2 0.3,-2 0.6,-4 0.8,-6 0.2,-1.5 -0.1,-3 -0.8,-4.3 L 86,78.5 c -0.3,0.9 -0.5,1.9 -0.6,2.8 -0.1,1.8 0.1,3.7 0.1,5.6 0,0.8 -0.1,1.5 -0.2,2.3 C 84,89.1 84,88.2 83.9,87.4 83.5,83.6 84,81.8 83.5,78 c -0.2,-1.5 -2.2,-4.2 -2.2,-4.5 0.6,-0.5 3,0.4 3,-1.2 0.3,0.8 0.7,1.5 1,2.4 0.6,-0.9 0.1,-1.5 -0.3,-2.1 -0.4,-0.6 -0.8,-1.2 -1.3,-1.8 0.2,0 0.4,0 0.6,0 4,1.3 7.1,4.4 8.4,8.3 0.5,1.5 1.2,3 1.6,4.6 -0.1,-0.2 -0.2,-0.6 -0.4,-0.7 -0.3,-0.1 -0.7,-0.3 -1,-0.3 0,0.3 -0.2,0.7 -0.1,0.9 0.7,1.2 1,2.8 2.3,3.6 1.3,0.8 1.8,2.7 1.5,4.5 z m 3,10.8 c -0.3,-0.5 -0.5,-0.9 -0.8,-1.3 -0.2,-0.4 -0.4,-0.8 -0.6,-1.3 1,-0.7 0.2,-1.4 0.1,-2.1 v 0 0 C 97.5,97.4 96.8,96.9 96,96.6 95.2,96.3 94.4,96 93.6,95.7 c 0,-0.1 0,-0.2 0,-0.4 l 2.4,0.2 c -0.6,-1.7 -2.1,-1.7 -3.6,-2 0.2,-0.1 0.4,-0.3 0.6,-0.4 0.2,-0.1 0.4,-0.2 0.6,-0.2 -0.4,-1.3 -0.5,-1.3 -3.8,-0.1 -0.1,-2 -2.1,-1.6 -3.1,-2.7 1.1,-0.9 1.4,-2.8 3.5,-3.2 -0.1,0.5 -0.2,0.9 -0.3,1.5 l 2.8,-0.8 0.1,0.3 -3.9,2.6 c 0.1,0.2 0.1,0.3 0.2,0.4 0.4,0 0.9,-0.1 1.3,-0.2 0.9,-0.6 2.1,-0.5 2.9,0.3 0.9,0.7 1.9,1.3 2.8,2.1 0.6,0.7 1.1,1.5 1.5,2.3 -0.1,0.1 -0.2,0.1 -0.3,0.2 -0.2,-0.6 -0.5,-1.1 -0.8,-1.7 -0.2,-0.2 -0.6,-0.3 -0.8,-0.5 0,0.3 0,0.6 0.2,0.9 0.6,0.9 1.3,1.8 1.9,2.6 0.2,0.3 0.4,0.6 0.5,0.8 h 0.1 v 0 c 1.7,1.6 2.1,2.8 1.2,4.8 z M 74,60.9 c 0.4,0.2 0.8,0.1 1,0.2 -0.1,0 -0.4,0.3 -0.5,0.3 0.1,0.5 0.2,1 0.4,1.4 0.4,0.6 1.1,0.8 1.8,0.5 l -1.8,-1 c 1,-0.5 2,0.4 2.6,-0.8 -0.2,-0.5 -1.5,-0.5 -1.7,-1 0.7,-0.1 1.3,-0.1 2,0 -0.8,-1 -2.2,-1.3 -3.4,-0.6 -0.1,0.1 -0.2,0.6 -0.4,1 z m 1,0.6 v 0 c 0.2,-0.1 0.3,-0.1 0.4,-0.2 0.4,0 0.8,0.1 1.1,0.2 v 0.1 c 0,0.1 0,0.4 -0.1,0.4 H 75 v -0.1 c 0,-0.1 0,-0.2 -0.1,-0.2 z m -0.4,-1 c 0,-0.5 1.2,-0.6 1.2,-0.5 0,0.1 -0.8,0.3 -1.1,0.4 z m 0.1,5.8 c -0.4,-0.3 -1.5,0 -2.2,-0.1 l 0.1,0.3 c 1.1,-0.1 0.2,0.9 1.1,0.8 -0.3,-0.7 0.5,-0.5 1,-1 z m -0.5,2 c -0.3,-0.1 -0.5,0 -1,-0.2 0,0.5 0.2,0.7 0.7,0.7 0.1,-0.2 0.2,-0.4 0.3,-0.5 z"
     id="path40" /><path
     d="m 109.2,113 c -0.4,-0.5 -0.9,-1 -1.4,-1.4 -0.6,-0.2 -1.1,-0.2 -1.7,-0.2 v -0.1 c 0.3,0 0.6,0 0.9,0 0.4,0 1.2,-0.3 1.2,-0.7 0,-0.4 -0.4,-0.7 -0.6,-0.8 -0.6,-0.2 -1.1,-0.2 -1.7,-0.1 0,0 1.5,0.4 1.4,0.8 -0.1,0.4 -1,0.5 -1,0.5 l -0.2,-0.3 v 0.3 l -0.4,-0.4 0.6,-0.1 -0.2,-0.4 -0.7,0.2 0.6,0.9 -0.1,0.1 c -0.1,-0.2 -0.3,-0.5 -0.5,-0.7 -0.4,-0.1 -0.8,-0.1 -1.2,0 v 0 c 0,0 0.5,0.8 0.7,0.9 0.3,0 0.5,0 0.8,0 l -0.1,0.1 -1.1,0.1 0.3,0.7 h 0.4 l -0.3,-0.5 h 0.5 l -0.2,0.2 h 0.4 c 0,0 0.4,0.9 0.2,1.1 -0.2,0.2 -1.5,-0.6 -1.5,-0.6 0.3,0.5 0.7,1 1.1,1.3 0.3,0.2 0.7,0.2 1.1,0 0.3,-0.3 0,-1.1 -0.2,-1.4 -0.2,-0.3 -0.4,-0.5 -0.6,-0.7 l 0.1,-0.1 c 0.4,0.4 0.9,0.8 1.4,1.1 0.7,0.2 1.3,0.2 2,0.2"
     id="path41" /><path
     d="m 45.7,115.1 c 0.4,-0.5 0.9,-1 1.4,-1.4 0.6,-0.2 1.1,-0.2 1.7,-0.2 v -0.1 c -0.3,0 -0.6,0 -0.9,0 -0.4,0 -1.2,-0.3 -1.2,-0.7 0,-0.4 0.4,-0.7 0.6,-0.8 0.6,-0.2 1.1,-0.2 1.7,-0.1 0,0 -1.5,0.4 -1.4,0.8 0,0.3 1,0.5 1,0.5 l 0.2,-0.3 v 0.3 l 0.4,-0.4 -0.6,-0.1 0.2,-0.4 0.7,0.2 -0.6,0.9 0.1,0.1 c 0.1,-0.2 0.3,-0.5 0.5,-0.7 0.4,-0.1 0.8,-0.1 1.2,0 v 0 c 0,0 -0.5,0.8 -0.7,0.9 -0.3,0 -0.5,0 -0.8,0 l 0.1,0.1 h 1.1 l -0.3,0.7 -0.4,-0.1 0.3,-0.5 h -0.5 l 0.2,0.2 H 49 c 0,0 -0.4,0.9 -0.2,1.1 0.2,0.2 1.5,-0.6 1.5,-0.6 -0.3,0.5 -0.7,0.9 -1.1,1.3 -0.3,0.2 -0.7,0.2 -1.1,0 -0.3,-0.3 0,-1.1 0.2,-1.4 0.2,-0.3 0.4,-0.5 0.6,-0.7 v -0.1 c -0.4,0.4 -0.8,0.9 -1.3,1.2 -0.6,0.1 -1.3,0.2 -1.9,0.3"
     id="path42" /></g>
</svg>
